<svg width="256" height="203" viewBox="0 0 256 203" fill="none" xmlns="http://www.w3.org/2000/svg">
<mask id="mask0_26_882" style="mask-type:luminance" maskUnits="userSpaceOnUse" x="0" y="-86" width="256" height="290">
<path d="M139.664 -85.5449L0.766846 -15.2925L117.035 203.008L255.933 132.755L139.664 -85.5449Z" fill="white"/>
</mask>
<g mask="url(#mask0_26_882)">
<path d="M5.40409 -17.3573C18.7667 -22.8489 33.0904 -25.951 46.9244 -30.0763C61.2701 -34.4049 74.3682 -39.8143 86.2295 -48.9055C86.4923 -49.0937 86.8044 -49.1965 87.0964 -49.2337C87.9221 -49.5414 88.8612 -49.6306 89.7619 -49.3112C94.9649 -47.7489 99.9409 -42.3112 104.19 -38.8303C108.551 -35.2371 112.868 -31.6218 117.17 -27.9437C126.361 -20.1684 135.432 -12.2221 144.562 -4.35758C153.544 3.41378 162.364 11.3768 171.324 19.2135C180.375 27.1151 189.719 34.5928 198.61 42.6889C200.497 44.3818 198.437 46.8603 196.435 46.3263C188.973 50.4901 180.895 53.3049 172.901 56.4634C168.901 58.0455 164.996 59.7997 161.136 61.6423C160.131 62.0953 159.111 62.7213 158.05 63.3679C164.187 66.7793 170.192 70.536 176.252 74.0963C185.128 79.3243 194.038 84.4285 202.799 89.935C219.823 100.598 236.48 111.942 251.588 125.451C254.491 128.07 253.46 131.408 251.08 132.997C250.146 134.961 248.312 136.495 245.583 136.549C222.179 137.068 198.655 126.711 176.726 117.978C152.611 108.364 127.746 101.446 103.502 92.1736C88.6553 86.4838 74.7993 79.1323 60.46 72.1394C56.0241 69.9649 55.2534 64.6113 59.2453 62.0412C73.0711 53.1168 88.0841 46.1295 102.709 38.5118C69.7327 23.9892 37.0851 8.41918 5.3583 -8.94274C2.18197 -10.7035 2.29274 -16.063 5.40409 -17.3573ZM73.6752 67.4423C82.6596 71.8995 92.184 75.4221 101.329 78.913C113.859 83.6776 126.587 87.8419 139.33 91.8305C151.24 95.5284 163.083 99.2 174.759 103.732C185.836 108.016 196.798 112.574 208.037 116.28C216.07 118.953 224.116 121.067 232.27 122.302C220.614 113.122 208.205 104.873 195.887 96.6918C189.456 92.4344 183.101 88.0285 176.828 83.578C176.287 83.2453 175.769 82.9561 175.227 82.6208C170.14 79.6191 164.994 76.6979 159.942 73.5651C155.996 71.1424 151.829 68.8872 148.034 66.0579C146.775 65.6485 145.72 64.7462 145.224 63.6156C145.201 63.5722 145.179 63.5289 145.132 63.4421C144.843 62.7035 144.78 61.9048 145.029 61.0076C146.174 56.507 150.909 54.942 154.749 53.165C159.024 51.2232 163.531 49.7182 168.023 48.3833C175.663 46.1199 183.355 44.4402 191.22 43.2792C172.642 31.7462 155.367 16.9025 138.776 2.65327C129.754 -5.09741 120.712 -12.8928 111.59 -20.538C107.075 -24.329 102.494 -28.1413 97.9179 -31.8461C93.8646 -35.1542 88.4814 -38.2303 85.4286 -42.5915C77.2571 -33.2143 64.192 -28.042 52.8331 -24.0636C41.7004 -20.144 30.1878 -17.1378 19.2646 -12.829C52.2986 2.49089 85.3187 17.8763 118.814 31.9122C124.051 34.1222 124.855 41.0055 120.218 43.7363C105.343 52.6405 89.3995 59.9334 73.6752 67.4423Z" fill="#F4BC3D"/>
</g>
</svg>
