<svg width="128" height="34" viewBox="0 0 128 34" fill="none" xmlns="http://www.w3.org/2000/svg">
<g clip-path="url(#clip0_1_2024)">
<g clip-path="url(#clip1_1_2024)">
<g clip-path="url(#clip2_1_2024)">
<path d="M25.2529 0.498535C28.4274 0.535509 30.7131 3.5581 29.8826 6.62163L29.8034 6.91214L29.7928 6.95572L28.2649 12.2878H21.8541L23.3897 6.93591L15.9858 6.9095H6.34888L8.18303 0.498535H25.2516H25.2529Z" fill="#8557C1"/>
<path d="M26.4771 18.5339L22.3334 32.9892H4.05785L0 26.5809H17.7592L20.0912 18.4414H7.69711L9.45998 12.2866H21.854L26.4771 18.5339Z" fill="#8557C1"/>
<path d="M75.2571 0.569824H59.7163L50.1388 32.9891H56.8944L59.9738 22.5678H68.759C70.6354 22.5678 72.5515 21.9009 74.2205 20.7878C73.522 19.1055 73.4243 17.0535 74.0793 14.8377L74.6457 12.923L75.4459 10.2146L76.0111 8.29994C76.6661 6.08417 77.976 4.03346 79.6689 2.34983C78.6574 1.23667 77.1348 0.569824 75.2597 0.569824H75.2571ZM72.8393 12.923L72.6716 13.4921C72.2517 14.9143 70.7555 16.0697 69.3334 16.0697H61.8938L64.5519 7.06793H71.9916C73.4138 7.06793 74.2271 8.22336 73.8072 9.64549L73.6395 10.2146L72.8393 12.923Z" fill="#8557C1"/>
<path d="M88.6004 0.569824C84.3303 0.569824 79.8473 4.03081 78.5862 8.29994L78.2125 9.56234L78.0198 10.2146L77.2195 12.923L77.1389 13.1963L76.6543 14.8377C75.4289 18.984 77.6949 22.3671 81.7382 22.5586L70.2513 32.9891H77.9273L89.2508 22.5678H90.8861L87.8071 32.9891H94.5641L104.143 0.569824H88.6021H88.6004ZM98.4982 10.4853C98.2579 10.6715 97.9644 10.7864 97.6814 10.7864H94.3656L93.9041 12.3512H97.2208C97.7877 12.3512 98.1107 12.8094 97.9418 13.3786C97.8573 13.6624 97.6684 13.9173 97.4298 14.1035C97.1894 14.2897 96.896 14.4046 96.6139 14.4046H93.2981L92.8061 16.0697H85.3669C83.9448 16.0697 83.1313 14.9143 83.5513 13.4921L83.7189 12.923H78.9018L79.7218 10.2146H84.5191L84.6868 9.64549C85.1068 8.22336 86.6029 7.06793 88.0248 7.06793H95.4645L94.9734 8.73307H98.2901C98.8569 8.73307 99.1808 9.19128 99.0128 9.75913C98.9283 10.043 98.7385 10.2992 98.4982 10.4853Z" fill="#8557C1"/>
<path d="M50.1944 0.495605H41.1927C37.6036 0.495605 33.8349 3.40463 32.7745 6.99371L25.0946 32.9888H31.5927L38.5107 9.57133C38.9306 8.14782 40.4254 6.99504 41.8489 6.99504H48.2731L45.5925 16.0708H38.3272L36.4072 22.5688H43.6725L40.5944 32.9888H47.0926L54.7725 6.99371L56.6925 0.495605H50.1944Z" fill="#8557C1"/>
<path d="M123.372 20.9252L126.952 6.8593H121.098L117.265 20.9252H115.395V20.9265H109.945L114.048 6.8593H121.098L123.58 0.569824H112.154H109.551L103.444 20.9265H100.232L96.7732 32.9904H103.063L104.916 27.2159H115.413V27.2146H120.103L118.252 32.9904H124.541L128 20.9252H123.372Z" fill="#8557C1"/>
</g>
</g>
</g>
<defs>
<clipPath id="clip0_1_2024">
<rect width="128" height="33.08" fill="white" transform="translate(0 0.5)"/>
</clipPath>
<clipPath id="clip1_1_2024">
<rect width="128" height="33.08" fill="white" transform="translate(0 0.5)"/>
</clipPath>
<clipPath id="clip2_1_2024">
<rect width="128" height="33.0884" fill="white" transform="translate(0 0.495605)"/>
</clipPath>
</defs>
</svg>
