<svg width="352" height="338" viewBox="0 0 352 338" fill="none" xmlns="http://www.w3.org/2000/svg">
<path d="M340.333 314.073C527.547 314.073 679.32 162.299 679.32 -24.9221C679.32 -212.143 527.547 -363.917 340.333 -363.917C153.107 -363.917 1.33337 -212.143 1.33337 -24.9221C1.33337 162.299 153.107 314.073 340.333 314.073Z" stroke="#DEB769" stroke-width="1.33333" stroke-miterlimit="10"/>
<path d="M458.667 298.023C634.667 298.023 777.333 138.338 777.333 -58.6434C777.333 -255.625 634.667 -415.31 458.667 -415.31C282.667 -415.31 140 -255.625 140 -58.6434C140 138.338 282.667 298.023 458.667 298.023Z" fill="#F4BC3D"/>
<path d="M464.76 336.355C681.693 336.355 857.547 160.498 857.547 -56.4328C857.547 -273.363 681.693 -449.221 464.76 -449.221C247.84 -449.221 71.9733 -273.363 71.9733 -56.4328C71.9733 160.498 247.84 336.355 464.76 336.355Z" stroke="#DEB769" stroke-width="1.33333" stroke-miterlimit="10"/>
</svg>
