<svg width="40" height="41" viewBox="0 0 40 41" fill="none" xmlns="http://www.w3.org/2000/svg">
<rect width="40" height="40" transform="translate(0 0.5)" fill="#774430"/>
<path d="M20 16.8555C19.5716 16.8555 19.166 16.9375 18.7832 17.1016C18.4004 17.2656 18.0654 17.4889 17.7783 17.7715C17.4912 18.054 17.2656 18.3867 17.1016 18.7695C16.9375 19.1523 16.8555 19.5625 16.8555 20C16.8555 20.4284 16.9375 20.834 17.1016 21.2168C17.2656 21.5996 17.4912 21.9346 17.7783 22.2217C18.0654 22.5088 18.4004 22.7344 18.7832 22.8984C19.1569 23.0625 19.5625 23.1445 20 23.1445C20.4375 23.1445 20.8477 23.0625 21.2305 22.8984C21.6133 22.7344 21.946 22.5088 22.2285 22.2217C22.5111 21.9346 22.7344 21.5996 22.8984 21.2168C23.0625 20.8431 23.1445 20.4375 23.1445 20C23.1445 19.5625 23.0625 19.1523 22.8984 18.7695C22.7344 18.3867 22.5111 18.054 22.2285 17.7715C21.946 17.4889 21.6133 17.2656 21.2305 17.1016C20.8477 16.9375 20.4375 16.8555 20 16.8555ZM20 22.0371C19.444 22.0371 18.9655 21.8389 18.5645 21.4424C18.1634 21.0459 17.9629 20.5651 17.9629 20C17.9629 19.4349 18.1611 18.9518 18.5576 18.5508C18.9541 18.1497 19.4349 17.9492 20 17.9492C20.5651 17.9492 21.0482 18.1497 21.4492 18.5508C21.8503 18.9518 22.0508 19.4349 22.0508 20C22.0508 20.5651 21.8503 21.0459 21.4492 21.4424C21.0482 21.8389 20.5651 22.0371 20 22.0371ZM24.0059 16.7324C24.0059 16.9329 23.9352 17.1038 23.7939 17.2451C23.6527 17.3864 23.4772 17.457 23.2676 17.457C23.0671 17.457 22.8962 17.3864 22.7549 17.2451C22.6136 17.1038 22.543 16.9329 22.543 16.7324C22.543 16.5228 22.6136 16.3473 22.7549 16.2061C22.8962 16.0648 23.0671 15.9941 23.2676 15.9941C23.4772 15.9941 23.6527 16.0648 23.7939 16.2061C23.9352 16.3473 24.0059 16.5228 24.0059 16.7324ZM26.084 17.4707C26.0658 16.9785 25.986 16.5182 25.8447 16.0898C25.7035 15.6615 25.4551 15.265 25.0996 14.9004C24.7441 14.5449 24.3499 14.2988 23.917 14.1621C23.484 14.0254 23.0215 13.9434 22.5293 13.916C22.2741 13.8978 21.9141 13.8841 21.4492 13.875C20.9935 13.875 20.5127 13.875 20.0068 13.875C19.501 13.875 19.0156 13.875 18.5508 13.875C18.0859 13.8841 17.7259 13.8978 17.4707 13.916C16.9876 13.9342 16.5296 14.014 16.0967 14.1553C15.6637 14.2965 15.265 14.5449 14.9004 14.9004C14.5449 15.2559 14.2988 15.6501 14.1621 16.083C14.0254 16.516 13.9434 16.9785 13.916 17.4707C13.8978 17.7259 13.8887 18.0814 13.8887 18.5371C13.8796 19.002 13.875 19.4873 13.875 19.9932C13.875 20.499 13.8796 20.9844 13.8887 21.4492C13.8887 21.9141 13.8978 22.2741 13.916 22.5293C13.9434 23.0124 14.0254 23.4704 14.1621 23.9033C14.2988 24.3363 14.5449 24.7305 14.9004 25.0859C15.265 25.4505 15.6615 25.7012 16.0898 25.8379C16.5182 25.9746 16.9785 26.0566 17.4707 26.084C17.7259 26.0931 18.0859 26.1022 18.5508 26.1113C19.0156 26.1204 19.501 26.125 20.0068 26.125C20.5127 26.125 20.9935 26.1204 21.4492 26.1113C21.9141 26.1022 22.2741 26.0931 22.5293 26.084C23.0215 26.0566 23.4818 25.9746 23.9102 25.8379C24.3385 25.7012 24.735 25.4505 25.0996 25.0859C25.4551 24.7305 25.7012 24.3363 25.8379 23.9033C25.9746 23.4704 26.0566 23.0124 26.084 22.5293C26.1022 22.2741 26.1159 21.9141 26.125 21.4492C26.125 20.9844 26.125 20.499 26.125 19.9932C26.125 19.4873 26.125 19.0065 26.125 18.5508C26.1159 18.0859 26.1022 17.7259 26.084 17.4707ZM24.7852 23.6094C24.6758 23.8737 24.5208 24.1061 24.3203 24.3066C24.1198 24.5072 23.8828 24.6621 23.6094 24.7715C23.4089 24.8535 23.1491 24.9128 22.8301 24.9492C22.5202 24.9857 22.1921 25.0085 21.8457 25.0176C21.4993 25.0267 21.1621 25.0312 20.834 25.0312C20.5059 25.0221 20.2279 25.0176 20 25.0176C19.7812 25.0176 19.5078 25.0221 19.1797 25.0312C18.8516 25.0312 18.5143 25.0267 18.168 25.0176C17.8216 25.0085 17.4889 24.9857 17.1699 24.9492C16.8509 24.9128 16.5911 24.8535 16.3906 24.7715C16.1263 24.6712 15.8939 24.5208 15.6934 24.3203C15.4928 24.1198 15.3379 23.8828 15.2285 23.6094C15.1465 23.4089 15.0872 23.1491 15.0508 22.8301C15.0143 22.5111 14.9915 22.1784 14.9824 21.832C14.9733 21.4857 14.9688 21.1484 14.9688 20.8203C14.9779 20.4922 14.9824 20.2188 14.9824 20C14.9824 19.7721 14.9779 19.4941 14.9688 19.166C14.9688 18.8379 14.9733 18.5007 14.9824 18.1543C14.9915 17.8079 15.0143 17.4798 15.0508 17.1699C15.0872 16.8509 15.1465 16.5911 15.2285 16.3906C15.3288 16.1172 15.4792 15.8802 15.6797 15.6797C15.8802 15.4792 16.1172 15.3242 16.3906 15.2148C16.5911 15.1419 16.8509 15.0872 17.1699 15.0508C17.4889 15.0143 17.8216 14.9893 18.168 14.9756C18.5143 14.9619 18.8516 14.9596 19.1797 14.9688C19.5078 14.9688 19.7812 14.9688 20 14.9688C20.2279 14.9688 20.5059 14.9688 20.834 14.9688C21.1621 14.9688 21.4993 14.9733 21.8457 14.9824C22.1921 14.9915 22.5202 15.0143 22.8301 15.0508C23.1491 15.0872 23.4089 15.1419 23.6094 15.2148C23.8828 15.3242 24.1198 15.4792 24.3203 15.6797C24.5208 15.8802 24.6758 16.1172 24.7852 16.3906C24.8581 16.5911 24.9128 16.8509 24.9492 17.1699C24.9857 17.4798 25.0107 17.8079 25.0244 18.1543C25.0381 18.5007 25.0404 18.8379 25.0312 19.166C25.0312 19.4941 25.0312 19.7721 25.0312 20C25.0312 20.2188 25.0312 20.4922 25.0312 20.8203C25.0404 21.1484 25.0381 21.4857 25.0244 21.832C25.0107 22.1784 24.9857 22.5111 24.9492 22.8301C24.9128 23.1491 24.8581 23.4089 24.7852 23.6094Z" fill="white"/>
</svg>
