<svg width="22" height="23" viewBox="0 0 22 23" fill="none" xmlns="http://www.w3.org/2000/svg">
<path d="M6.14664 0.313477C2.8015 0.313477 0.0799866 3.03499 0.0799866 6.38012V16.0868C0.0799866 19.432 2.8015 22.1535 6.14664 22.1535H15.8533C19.1985 22.1535 21.92 19.432 21.92 16.0868V6.38012C21.92 3.03499 19.1985 0.313477 15.8533 0.313477H6.14664ZM6.14664 2.74015H15.8533C17.8602 2.74015 19.4933 4.37328 19.4933 6.38012V16.0868C19.4933 18.0937 17.8602 19.7268 15.8533 19.7268H6.14664C4.13979 19.7268 2.50666 18.0937 2.50666 16.0868V6.38012C2.50666 4.37328 4.13979 2.74015 6.14664 2.74015ZM17.0666 3.95345C16.7448 3.95345 16.4362 4.0813 16.2087 4.30885C15.9812 4.53641 15.8533 4.84502 15.8533 5.16683C15.8533 5.48863 15.9812 5.79725 16.2087 6.0248C16.4362 6.25228 16.7448 6.38012 17.0666 6.38012C17.3884 6.38012 17.6971 6.25228 17.9246 6.0248C18.1522 5.79725 18.28 5.48863 18.28 5.16683C18.28 4.84502 18.1522 4.53641 17.9246 4.30885C17.6971 4.0813 17.3884 3.95345 17.0666 3.95345ZM11 5.16683C7.65485 5.16683 4.93334 7.88834 4.93334 11.2335C4.93334 14.5786 7.65485 17.3001 11 17.3001C14.3451 17.3001 17.0666 14.5786 17.0666 11.2335C17.0666 7.88834 14.3451 5.16683 11 5.16683ZM11 7.5935C13.0068 7.5935 14.64 9.22663 14.64 11.2335C14.64 13.2403 13.0068 14.8734 11 14.8734C8.99314 14.8734 7.36002 13.2403 7.36002 11.2335C7.36002 9.22663 8.99314 7.5935 11 7.5935Z" fill="#8557C1"/>
</svg>
