<?xml version="1.0" encoding="UTF-8"?> <svg xmlns="http://www.w3.org/2000/svg" width="26" height="27" viewBox="0 0 26 27" fill="none"><path d="M7.22222 0.587402C3.23989 0.587402 0 3.82729 0 7.80962V19.3652C0 23.3475 3.23989 26.5874 7.22222 26.5874H18.7778C22.7601 26.5874 26 23.3475 26 19.3652V7.80962C26 3.82729 22.7601 0.587402 18.7778 0.587402H7.22222ZM7.22222 3.47629H18.7778C21.1669 3.47629 23.1111 5.42051 23.1111 7.80962V19.3652C23.1111 21.7543 21.1669 23.6985 18.7778 23.6985H7.22222C4.83311 23.6985 2.88889 21.7543 2.88889 19.3652V7.80962C2.88889 5.42051 4.83311 3.47629 7.22222 3.47629ZM20.2222 4.92074C19.8391 4.92074 19.4717 5.07292 19.2008 5.3438C18.93 5.61469 18.7778 5.98209 18.7778 6.36518C18.7778 6.74827 18.93 7.11567 19.2008 7.38656C19.4717 7.65744 19.8391 7.80962 20.2222 7.80962C20.6053 7.80962 20.9727 7.65744 21.2436 7.38656C21.5145 7.11567 21.6667 6.74827 21.6667 6.36518C21.6667 5.98209 21.5145 5.61469 21.2436 5.3438C20.9727 5.07292 20.6053 4.92074 20.2222 4.92074ZM13 6.36518C9.01767 6.36518 5.77778 9.60507 5.77778 13.5874C5.77778 17.5697 9.01767 20.8096 13 20.8096C16.9823 20.8096 20.2222 17.5697 20.2222 13.5874C20.2222 9.60507 16.9823 6.36518 13 6.36518ZM13 9.25407C15.3891 9.25407 17.3333 11.1983 17.3333 13.5874C17.3333 15.9765 15.3891 17.9207 13 17.9207C10.6109 17.9207 8.66667 15.9765 8.66667 13.5874C8.66667 11.1983 10.6109 9.25407 13 9.25407Z" fill="#8557C1"></path></svg> 