<?xml version="1.0" encoding="UTF-8"?> <svg xmlns="http://www.w3.org/2000/svg" width="194" height="25" viewBox="0 0 194 25" fill="none"><path d="M0.025 19V1.25H12.5V3.7H2.825V8.675H8.025C9.99167 8.675 11.4667 9.14167 12.45 10.075C13.4333 10.9917 13.925 12.2083 13.925 13.725C13.925 14.7417 13.7083 15.65 13.275 16.45C12.8583 17.2333 12.225 17.8583 11.375 18.325C10.5417 18.775 9.48333 19 8.2 19H0.025ZM2.825 16.55H7.825C8.59167 16.55 9.20833 16.4083 9.675 16.125C10.1583 15.8417 10.5 15.4833 10.7 15.05C10.9167 14.6 11.025 14.1333 11.025 13.65C11.025 13.1667 10.9333 12.7167 10.75 12.3C10.5667 11.8833 10.2333 11.55 9.75 11.3C9.28333 11.0333 8.625 10.9 7.775 10.9H2.825V16.55ZM22.1277 19.25C21.1111 19.25 20.1861 19.075 19.3527 18.725C18.5361 18.3583 17.8277 17.8667 17.2277 17.25C16.6277 16.6167 16.1611 15.9 15.8277 15.1C15.5111 14.2833 15.3527 13.4167 15.3527 12.5C15.3527 11.2667 15.6361 10.1417 16.2027 9.125C16.7694 8.09167 17.5611 7.26667 18.5777 6.65C19.5944 6.01667 20.7861 5.7 22.1527 5.7C23.5194 5.7 24.6944 6.01667 25.6777 6.65C26.6777 7.26667 27.4527 8.08333 28.0027 9.1C28.5527 10.1167 28.8277 11.2083 28.8277 12.375C28.8277 12.575 28.8194 12.7667 28.8027 12.95C28.7861 13.1167 28.7694 13.2583 28.7527 13.375H18.2777C18.3277 14.1417 18.5361 14.8167 18.9027 15.4C19.2861 15.9667 19.7694 16.4167 20.3527 16.75C20.9361 17.0667 21.5611 17.225 22.2277 17.225C22.9611 17.225 23.6527 17.0417 24.3027 16.675C24.9694 16.3083 25.4194 15.825 25.6527 15.225L28.0027 15.9C27.7194 16.5333 27.2861 17.1083 26.7027 17.625C26.1361 18.125 25.4611 18.525 24.6777 18.825C23.8944 19.1083 23.0444 19.25 22.1277 19.25ZM18.2027 11.55H26.1027C26.0527 10.8 25.8361 10.1417 25.4527 9.575C25.0861 8.99167 24.6111 8.54167 24.0277 8.225C23.4611 7.89167 22.8277 7.725 22.1277 7.725C21.4444 7.725 20.8111 7.89167 20.2277 8.225C19.6611 8.54167 19.1944 8.99167 18.8277 9.575C18.4611 10.1417 18.2527 10.8 18.2027 11.55ZM38.4959 19.25C37.4459 19.25 36.5209 19 35.7209 18.5C34.9209 18 34.2876 17.35 33.8209 16.55V24.325H31.0709V5.925H33.4959V8.275C33.9959 7.49167 34.6459 6.86667 35.4459 6.4C36.2459 5.93333 37.1376 5.7 38.1209 5.7C39.0209 5.7 39.8459 5.88333 40.5959 6.25C41.3459 6.6 41.9959 7.09167 42.5459 7.725C43.0959 8.35833 43.5209 9.08333 43.8209 9.9C44.1376 10.7 44.2959 11.55 44.2959 12.45C44.2959 13.7 44.0459 14.8417 43.5459 15.875C43.0626 16.9083 42.3792 17.7333 41.4959 18.35C40.6292 18.95 39.6292 19.25 38.4959 19.25ZM37.5959 16.9C38.1792 16.9 38.7042 16.775 39.1709 16.525C39.6542 16.275 40.0626 15.9417 40.3959 15.525C40.7459 15.1083 41.0126 14.6333 41.1959 14.1C41.3792 13.5667 41.4709 13.0167 41.4709 12.45C41.4709 11.85 41.3709 11.2833 41.1709 10.75C40.9709 10.2167 40.6792 9.75 40.2959 9.35C39.9292 8.95 39.4959 8.63333 38.9959 8.4C38.5126 8.16667 37.9792 8.05 37.3959 8.05C37.0459 8.05 36.6792 8.11667 36.2959 8.25C35.9126 8.38333 35.5542 8.56667 35.2209 8.8C34.8876 9.03333 34.5959 9.30833 34.3459 9.625C34.0959 9.94167 33.9209 10.275 33.8209 10.625V14.05C34.0542 14.5833 34.3626 15.0667 34.7459 15.5C35.1292 15.9167 35.5709 16.2583 36.0709 16.525C36.5709 16.775 37.0792 16.9 37.5959 16.9ZM46.7691 19V5.95H49.5191V15.325L56.1441 5.925H58.6441V19H55.8941V9.825L49.3441 19H46.7691ZM68.107 19V5.925H75.107C75.9404 5.925 76.6237 6.08333 77.157 6.4C77.707 6.7 78.1154 7.09167 78.382 7.575C78.6487 8.04167 78.782 8.55833 78.782 9.125C78.782 9.84167 78.6154 10.475 78.282 11.025C77.9487 11.575 77.457 11.9917 76.807 12.275C77.557 12.4917 78.1654 12.875 78.632 13.425C79.1154 13.9583 79.357 14.65 79.357 15.5C79.357 16.2667 79.1737 16.9167 78.807 17.45C78.4404 17.9667 77.9154 18.3583 77.232 18.625C76.5654 18.875 75.782 19 74.882 19H68.107ZM70.707 17.1H74.807C75.157 17.1 75.4737 17.0167 75.757 16.85C76.057 16.6667 76.2904 16.4333 76.457 16.15C76.6237 15.85 76.707 15.5333 76.707 15.2C76.707 14.8333 76.6237 14.5083 76.457 14.225C76.307 13.9417 76.0904 13.7167 75.807 13.55C75.5404 13.3833 75.2237 13.3 74.857 13.3H70.707V17.1ZM70.707 11.525H74.407C74.757 11.525 75.0654 11.4417 75.332 11.275C75.5987 11.0917 75.807 10.85 75.957 10.55C76.107 10.25 76.182 9.93333 76.182 9.6C76.182 9.11667 76.0237 8.7 75.707 8.35C75.3904 8 74.9737 7.825 74.457 7.825H70.707V11.525ZM87.8992 19.25C86.8826 19.25 85.9576 19.075 85.1242 18.725C84.3076 18.3583 83.5992 17.8667 82.9992 17.25C82.3992 16.6167 81.9326 15.9 81.5992 15.1C81.2826 14.2833 81.1242 13.4167 81.1242 12.5C81.1242 11.2667 81.4076 10.1417 81.9742 9.125C82.5409 8.09167 83.3326 7.26667 84.3492 6.65C85.3659 6.01667 86.5576 5.7 87.9242 5.7C89.2909 5.7 90.4659 6.01667 91.4492 6.65C92.4492 7.26667 93.2242 8.08333 93.7742 9.1C94.3242 10.1167 94.5992 11.2083 94.5992 12.375C94.5992 12.575 94.5909 12.7667 94.5742 12.95C94.5576 13.1167 94.5409 13.2583 94.5242 13.375H84.0492C84.0992 14.1417 84.3076 14.8167 84.6742 15.4C85.0576 15.9667 85.5409 16.4167 86.1242 16.75C86.7076 17.0667 87.3326 17.225 87.9992 17.225C88.7326 17.225 89.4242 17.0417 90.0742 16.675C90.7409 16.3083 91.1909 15.825 91.4242 15.225L93.7742 15.9C93.4909 16.5333 93.0576 17.1083 92.4742 17.625C91.9076 18.125 91.2326 18.525 90.4492 18.825C89.6659 19.1083 88.8159 19.25 87.8992 19.25ZM83.9742 11.55H91.8742C91.8242 10.8 91.6076 10.1417 91.2242 9.575C90.8576 8.99167 90.3826 8.54167 89.7992 8.225C89.2326 7.89167 88.5992 7.725 87.8992 7.725C87.2159 7.725 86.5826 7.89167 85.9992 8.225C85.4326 8.54167 84.9659 8.99167 84.5992 9.575C84.2326 10.1417 84.0242 10.8 83.9742 11.55ZM95.7924 19.125V16.675C96.209 16.675 96.584 16.575 96.9174 16.375C97.2507 16.1583 97.5424 15.8083 97.7924 15.325C98.0424 14.825 98.2424 14.1333 98.3924 13.25C98.5424 12.3667 98.6424 11.2417 98.6924 9.875L98.8674 5.925H108.192V19H105.442V8.35H101.292L101.242 10.125C101.176 11.875 101.017 13.3333 100.767 14.5C100.517 15.65 100.167 16.5667 99.7174 17.25C99.284 17.9167 98.734 18.4 98.0674 18.7C97.4174 18.9833 96.659 19.125 95.7924 19.125ZM117.366 19.25C116.332 19.25 115.407 19.075 114.591 18.725C113.774 18.3583 113.066 17.8583 112.466 17.225C111.882 16.5917 111.432 15.875 111.116 15.075C110.799 14.2583 110.641 13.3917 110.641 12.475C110.641 11.5583 110.799 10.6917 111.116 9.875C111.432 9.05833 111.882 8.34167 112.466 7.725C113.066 7.09167 113.774 6.6 114.591 6.25C115.424 5.88333 116.349 5.7 117.366 5.7C118.382 5.7 119.299 5.88333 120.116 6.25C120.949 6.6 121.657 7.09167 122.241 7.725C122.841 8.34167 123.299 9.05833 123.616 9.875C123.932 10.6917 124.091 11.5583 124.091 12.475C124.091 13.3917 123.932 14.2583 123.616 15.075C123.299 15.875 122.841 16.5917 122.241 17.225C121.657 17.8583 120.949 18.3583 120.116 18.725C119.299 19.075 118.382 19.25 117.366 19.25ZM113.466 12.5C113.466 13.3333 113.641 14.0833 113.991 14.75C114.341 15.4167 114.807 15.9417 115.391 16.325C115.974 16.7083 116.632 16.9 117.366 16.9C118.082 16.9 118.732 16.7083 119.316 16.325C119.916 15.925 120.391 15.3917 120.741 14.725C121.091 14.0417 121.266 13.2917 121.266 12.475C121.266 11.6417 121.091 10.8917 120.741 10.225C120.391 9.55833 119.916 9.03333 119.316 8.65C118.732 8.25 118.082 8.05 117.366 8.05C116.632 8.05 115.974 8.25 115.391 8.65C114.807 9.05 114.341 9.58333 113.991 10.25C113.641 10.9 113.466 11.65 113.466 12.5ZM126.405 13.4V10.925H133.88V13.4H126.405ZM143.377 19.25C141.194 19.25 139.536 18.5917 138.402 17.275C137.269 15.9583 136.702 14.075 136.702 11.625C136.702 10.025 136.836 8.675 137.102 7.575C137.386 6.45833 137.794 5.54167 138.327 4.825C138.877 4.10833 139.552 3.525 140.352 3.075C141.169 2.60833 142.111 2.23333 143.177 1.95L148.752 0.4L148.852 2.7L143.377 4.25C142.511 4.51667 141.769 4.86667 141.152 5.3C140.552 5.73333 140.077 6.3 139.727 7C139.377 7.68333 139.144 8.55 139.027 9.6C139.494 8.75 140.161 8.08333 141.027 7.6C141.894 7.11667 142.919 6.875 144.102 6.875C145.319 6.875 146.369 7.13333 147.252 7.65C148.136 8.15 148.819 8.85 149.302 9.75C149.786 10.65 150.027 11.6833 150.027 12.85C150.027 14.1167 149.769 15.2333 149.252 16.2C148.752 17.15 148.002 17.9 147.002 18.45C146.019 18.9833 144.811 19.25 143.377 19.25ZM143.377 16.9C144.594 16.9 145.536 16.5417 146.202 15.825C146.886 15.1083 147.227 14.1583 147.227 12.975C147.227 11.8417 146.886 10.9167 146.202 10.2C145.536 9.46667 144.594 9.1 143.377 9.1C142.661 9.1 142.011 9.25833 141.427 9.575C140.844 9.875 140.386 10.3167 140.052 10.9C139.719 11.4667 139.552 12.1583 139.552 12.975C139.552 13.7417 139.702 14.425 140.002 15.025C140.302 15.6083 140.736 16.0667 141.302 16.4C141.869 16.7333 142.561 16.9 143.377 16.9ZM151.532 15.175C151.532 14.3417 151.765 13.6167 152.232 13C152.715 12.3667 153.374 11.8833 154.207 11.55C155.04 11.2 156.007 11.025 157.107 11.025C157.69 11.025 158.282 11.0667 158.882 11.15C159.499 11.2333 160.04 11.3667 160.507 11.55V10.725C160.507 9.80833 160.232 9.09167 159.682 8.575C159.132 8.05833 158.34 7.8 157.307 7.8C156.574 7.8 155.882 7.93333 155.232 8.2C154.582 8.45 153.89 8.80833 153.157 9.275L152.232 7.425C153.099 6.84167 153.965 6.40833 154.832 6.125C155.715 5.84167 156.64 5.7 157.607 5.7C159.357 5.7 160.732 6.16667 161.732 7.1C162.749 8.01667 163.257 9.325 163.257 11.025V15.9C163.257 16.2167 163.307 16.4417 163.407 16.575C163.524 16.7083 163.715 16.7833 163.982 16.8V19C163.732 19.05 163.507 19.0833 163.307 19.1C163.107 19.1167 162.94 19.125 162.807 19.125C162.224 19.125 161.782 18.9833 161.482 18.7C161.182 18.4167 161.007 18.0833 160.957 17.7L160.882 16.95C160.315 17.6833 159.59 18.25 158.707 18.65C157.824 19.05 156.932 19.25 156.032 19.25C155.165 19.25 154.39 19.075 153.707 18.725C153.024 18.3583 152.49 17.8667 152.107 17.25C151.724 16.6333 151.532 15.9417 151.532 15.175ZM159.857 15.975C160.057 15.7583 160.215 15.5417 160.332 15.325C160.449 15.1083 160.507 14.9167 160.507 14.75V13.25C160.04 13.0667 159.549 12.9333 159.032 12.85C158.515 12.75 158.007 12.7 157.507 12.7C156.507 12.7 155.69 12.9 155.057 13.3C154.44 13.7 154.132 14.25 154.132 14.95C154.132 15.3333 154.232 15.7 154.432 16.05C154.649 16.4 154.949 16.6833 155.332 16.9C155.732 17.1167 156.224 17.225 156.807 17.225C157.407 17.225 157.982 17.1083 158.532 16.875C159.082 16.6417 159.524 16.3417 159.857 15.975ZM166.593 19V5.95H169.343V15.325L175.968 5.925H178.468V19H175.718V9.825L169.168 19H166.593ZM172.543 4.575C171.31 4.575 170.352 4.26667 169.668 3.65C169.002 3.03333 168.668 2.25833 168.668 1.325H170.468C170.468 1.80833 170.627 2.20833 170.943 2.525C171.277 2.84167 171.81 3 172.543 3C173.26 3 173.768 2.85 174.068 2.55C174.385 2.25 174.577 1.84167 174.643 1.325H176.443C176.443 2.25833 176.102 3.03333 175.418 3.65C174.752 4.26667 173.793 4.575 172.543 4.575ZM181.754 19V5.925H184.479V11.1H185.779L189.629 5.925H192.679L187.904 12.25L193.229 19H190.054L185.754 13.575H184.479V19H181.754Z" fill="#191C3B"></path></svg> 