<svg width="224" height="91" viewBox="0 0 224 91" fill="none" xmlns="http://www.w3.org/2000/svg">
<g clip-path="url(#clip0_1_2120)">
<path d="M49.9683 48.3824V40.3083H52.6072C53.4822 40.3083 54.1396 40.4912 54.5794 40.8546C55.0238 41.2203 55.2461 41.7574 55.2461 42.4657C55.2461 42.843 55.1373 43.1763 54.922 43.4657C54.7113 43.7574 54.422 43.9796 54.0516 44.1324C54.4822 44.2574 54.8248 44.4912 55.0794 44.8361C55.3317 45.1763 55.459 45.5838 55.459 46.0583C55.459 46.7805 55.2229 47.35 54.7553 47.762C54.2854 48.1763 53.6211 48.3824 52.7646 48.3824H49.9683ZM51.0331 44.6046V47.512H52.7924C53.2854 47.512 53.6743 47.387 53.959 47.1324C54.2484 46.8731 54.3942 46.5189 54.3942 46.0675C54.3942 45.093 53.8664 44.6046 52.8109 44.6046H51.0331ZM51.0331 43.7527H52.6442C53.1072 43.7527 53.4776 43.6393 53.7553 43.4101C54.0377 43.1763 54.1813 42.8592 54.1813 42.4564C54.1813 42.012 54.0516 41.6925 53.7924 41.4935C53.5331 41.2898 53.1373 41.1879 52.6072 41.1879H51.0331V43.7527Z" fill="black"/>
<path d="M57.9968 44.4564H59.5524C60.2306 44.4633 60.7677 44.6393 61.1635 44.9842C61.557 45.3314 61.7561 45.8036 61.7561 46.4008C61.7561 47.0004 61.5524 47.4819 61.145 47.8453C60.7422 48.2041 60.1959 48.3823 59.5061 48.3823H56.9691V42.3823H57.9968V44.4564ZM63.895 48.3823H62.8672V42.3823H63.895V48.3823ZM57.9968 45.2897V47.549H59.5154C59.9042 47.549 60.2029 47.4518 60.4135 47.2527C60.6218 47.0559 60.7283 46.7851 60.7283 46.4379C60.7283 46.1045 60.6218 45.8337 60.4135 45.6231C60.2098 45.4078 59.9251 45.2967 59.5616 45.2897H57.9968Z" fill="black"/>
<path d="M68.3173 42.7249C69.0696 42.7249 69.6714 42.9796 70.1228 43.4842C70.5788 43.9911 70.808 44.6555 70.808 45.4749V45.5675C70.808 46.137 70.6969 46.6416 70.4747 47.0861C70.2571 47.5305 69.9469 47.8777 69.5395 48.1231C69.1321 48.3708 68.6622 48.4935 68.1321 48.4935C67.3219 48.4935 66.6714 48.2249 66.1784 47.6879C65.69 47.1509 65.4469 46.4286 65.4469 45.5212V45.0212C65.4469 43.762 65.6807 42.762 66.1506 42.0212C66.6182 41.2759 67.308 40.8222 68.2154 40.6601C68.7339 40.5675 69.0812 40.4564 69.2617 40.3268C69.4469 40.1925 69.5395 40.0074 69.5395 39.7712H70.3821C70.3821 40.2342 70.2756 40.5953 70.0673 40.8546C69.8566 41.1138 69.5233 41.2967 69.0673 41.4009L68.2988 41.5768C67.6923 41.7203 67.2363 41.9634 66.9284 42.3083C66.6251 42.6486 66.4284 43.1023 66.3358 43.6694C66.8775 43.0398 67.5395 42.7249 68.3173 42.7249ZM68.1228 43.5675C67.6159 43.5675 67.2154 43.7388 66.9191 44.0768C66.6228 44.4171 66.4747 44.887 66.4747 45.4842V45.5675C66.4747 46.2157 66.6228 46.7296 66.9191 47.1046C67.22 47.4749 67.6251 47.6601 68.1321 47.6601C68.6367 47.6601 69.0395 47.4726 69.3358 47.0953C69.6321 46.7203 69.7802 46.1694 69.7802 45.4472C69.7802 44.88 69.6321 44.4263 69.3358 44.0861C69.0395 43.7411 68.6344 43.5675 68.1228 43.5675Z" fill="black"/>
<path d="M74.4515 48.4935C73.6367 48.4935 72.9724 48.2296 72.4608 47.6972C71.9539 47.1601 71.7015 46.4449 71.7015 45.549V45.3638C71.7015 44.7666 71.8126 44.2342 72.0349 43.7712C72.2617 43.3036 72.5812 42.9356 72.9886 42.6694C73.4006 42.4055 73.8451 42.2712 74.3219 42.2712C75.0997 42.2712 75.7039 42.5305 76.1367 43.049C76.5673 43.5629 76.7849 44.2967 76.7849 45.2527V45.6786H72.7201C72.7386 46.2712 72.9099 46.7504 73.2386 47.1138C73.5719 47.4796 73.9932 47.6601 74.5071 47.6601C74.8636 47.6601 75.1691 47.5861 75.4238 47.4379C75.6761 47.2898 75.896 47.093 76.0812 46.8453L76.7108 47.3361C76.2039 48.1092 75.4515 48.4935 74.4515 48.4935ZM74.3219 43.1138C73.9076 43.1138 73.558 43.2666 73.2756 43.5675C72.9978 43.8708 72.8242 44.2944 72.7571 44.8361H75.7571V44.7527C75.7316 44.2342 75.5927 43.8337 75.3404 43.549C75.0858 43.2597 74.7478 43.1138 74.3219 43.1138Z" fill="black"/>
<path d="M83.0383 45.4472C83.0383 46.3615 82.8276 47.0999 82.4086 47.6601C81.9943 48.2157 81.4295 48.4935 80.7142 48.4935C79.985 48.4935 79.4133 48.262 79.0012 47.799V50.6879H77.9734V42.3824H78.9086L78.9549 43.049C79.3739 42.5305 79.9549 42.2712 80.6957 42.2712C81.4179 42.2712 81.9873 42.5444 82.4086 43.0861C82.8276 43.63 83.0383 44.387 83.0383 45.3546V45.4472ZM82.0105 45.3361C82.0105 44.6578 81.8647 44.1231 81.5753 43.7342C81.2906 43.3407 80.8947 43.1416 80.3901 43.1416C79.7721 43.1416 79.3091 43.4171 79.0012 43.9657V46.8361C79.3022 47.387 79.7721 47.6601 80.4086 47.6601C80.8947 47.6601 81.2836 47.4657 81.5753 47.0768C81.8647 46.6833 82.0105 46.1023 82.0105 45.3361Z" fill="black"/>
<path d="M88.2204 42.3823H89.2482V48.3823H88.2204V44.012L85.4519 48.3823H84.4241V42.3823H85.4519V46.762L88.2204 42.3823Z" fill="black"/>
<path d="M96.108 47.6601C96.4715 47.6601 96.7886 47.549 97.0617 47.3268C97.3326 47.1046 97.483 46.8268 97.5154 46.4935H98.4877C98.4691 46.8407 98.3488 47.1671 98.1265 47.4749C97.9089 47.7851 97.6196 48.0305 97.2562 48.2157C96.8904 48.4009 96.5085 48.4935 96.108 48.4935C95.2863 48.4935 94.6358 48.2226 94.1543 47.6786C93.6728 47.13 93.4321 46.3824 93.4321 45.4379V45.2712C93.4321 44.6856 93.5386 44.1671 93.7562 43.7157C93.9715 43.2597 94.277 42.9055 94.6728 42.6509C95.0733 42.3986 95.5478 42.2712 96.0988 42.2712C96.7701 42.2712 97.3302 42.4749 97.7747 42.8824C98.2191 43.2851 98.4552 43.806 98.4877 44.4472H97.5154C97.483 44.0583 97.3349 43.7411 97.071 43.4935C96.8117 43.2411 96.4877 43.1138 96.0988 43.1138C95.5802 43.1138 95.1752 43.3036 94.8858 43.6786C94.6011 44.056 94.4599 44.5999 94.4599 45.3083V45.5027C94.4599 46.1949 94.6011 46.7296 94.8858 47.1046C95.1682 47.4749 95.5756 47.6601 96.108 47.6601Z" fill="black"/>
<path d="M99.7338 48.3823V42.3823H102.076C102.873 42.3823 103.484 42.5258 103.91 42.8083C104.336 43.086 104.549 43.4934 104.549 44.0305C104.549 44.3082 104.465 44.5582 104.299 44.7805C104.132 45.0027 103.887 45.1763 103.567 45.299C103.924 45.38 104.215 45.5467 104.438 45.799C104.66 46.0467 104.771 46.3407 104.771 46.6786C104.771 47.2295 104.567 47.6508 104.16 47.9471C103.752 48.2388 103.181 48.3823 102.447 48.3823H99.7338ZM100.762 45.7527V47.5582H102.456C102.882 47.5582 103.199 47.4795 103.41 47.3175C103.625 47.1578 103.734 46.9356 103.734 46.6508C103.734 46.0536 103.294 45.7527 102.419 45.7527H100.762ZM100.762 44.9286H102.086C103.042 44.9286 103.521 44.6485 103.521 44.086C103.521 43.5258 103.067 43.2342 102.16 43.2157H100.762V44.9286Z" fill="black"/>
<path d="M105.847 45.3268C105.847 44.7411 105.961 44.2134 106.19 43.7435C106.424 43.2759 106.748 42.9148 107.162 42.6601C107.574 42.4009 108.044 42.2712 108.569 42.2712C109.389 42.2712 110.051 42.556 110.551 43.1231C111.056 43.6856 111.31 44.4379 111.31 45.3824V45.4472C111.31 46.0351 111.199 46.5583 110.977 47.0212C110.755 47.4842 110.433 47.8453 110.014 48.1046C109.599 48.3638 109.125 48.4935 108.588 48.4935C107.773 48.4935 107.111 48.2134 106.606 47.6509C106.099 47.0837 105.847 46.3337 105.847 45.4009V45.3268ZM106.884 45.4472C106.884 46.1138 107.037 46.6509 107.347 47.0583C107.655 47.4611 108.069 47.6601 108.588 47.6601C109.106 47.6601 109.516 47.4564 109.819 47.049C110.127 46.637 110.282 46.0629 110.282 45.3268C110.282 44.674 110.125 44.1416 109.81 43.7342C109.5 43.3222 109.088 43.1138 108.569 43.1138C108.062 43.1138 107.655 43.3175 107.347 43.7249C107.037 44.1277 106.884 44.7018 106.884 45.4472Z" fill="black"/>
<path d="M116.477 42.3823H117.505V48.3823H116.477V44.012L113.709 48.3823H112.681V42.3823H113.709V46.762L116.477 42.3823ZM116.755 40.1971C116.755 40.6416 116.6 41.0004 116.292 41.2712C115.989 41.5444 115.591 41.6786 115.098 41.6786C114.602 41.6786 114.202 41.5444 113.894 41.2712C113.584 41.0004 113.431 40.6416 113.431 40.1971H114.274C114.274 40.4564 114.341 40.6601 114.477 40.8083C114.618 40.9518 114.824 41.0212 115.098 41.0212C115.357 41.0212 115.556 40.9518 115.699 40.8083C115.848 40.6671 115.922 40.4633 115.922 40.1971H116.755Z" fill="black"/>
<path d="M122.05 48.3823V42.3823H124.393C125.189 42.3823 125.8 42.5258 126.226 42.8083C126.652 43.086 126.865 43.4934 126.865 44.0305C126.865 44.3082 126.781 44.5582 126.615 44.7805C126.448 45.0027 126.203 45.1763 125.883 45.299C126.24 45.38 126.531 45.5467 126.754 45.799C126.976 46.0467 127.087 46.3407 127.087 46.6786C127.087 47.2295 126.883 47.6508 126.476 47.9471C126.069 48.2388 125.497 48.3823 124.763 48.3823H122.05ZM123.078 45.7527V47.5582H124.772C125.198 47.5582 125.515 47.4795 125.726 47.3175C125.941 47.1578 126.05 46.9356 126.05 46.6508C126.05 46.0536 125.61 45.7527 124.735 45.7527H123.078ZM123.078 44.9286H124.402C125.358 44.9286 125.837 44.6485 125.837 44.086C125.837 43.5258 125.383 43.2342 124.476 43.2157H123.078V44.9286Z" fill="black"/>
<path d="M130.932 48.4935C130.117 48.4935 129.453 48.2296 128.941 47.6972C128.434 47.1601 128.182 46.4449 128.182 45.549V45.3638C128.182 44.7666 128.293 44.2342 128.515 43.7712C128.742 43.3036 129.061 42.9356 129.469 42.6694C129.881 42.4055 130.325 42.2712 130.802 42.2712C131.58 42.2712 132.184 42.5305 132.617 43.049C133.048 43.5629 133.265 44.2967 133.265 45.2527V45.6786H129.2C129.219 46.2712 129.39 46.7504 129.719 47.1138C130.052 47.4796 130.474 47.6601 130.987 47.6601C131.344 47.6601 131.649 47.5861 131.904 47.4379C132.156 47.2898 132.376 47.093 132.561 46.8453L133.191 47.3361C132.684 48.1092 131.932 48.4935 130.932 48.4935ZM130.802 43.1138C130.388 43.1138 130.038 43.2666 129.756 43.5675C129.478 43.8708 129.305 44.2944 129.237 44.8361H132.237V44.7527C132.212 44.2342 132.073 43.8337 131.821 43.549C131.566 43.2597 131.228 43.1138 130.802 43.1138Z" fill="black"/>
<path d="M139.37 42.3823V48.3823H138.333V43.2342H136.296L136.176 45.4749C136.107 46.5073 135.935 47.2434 135.657 47.6879C135.38 48.1323 134.938 48.3638 134.333 48.3823H133.917V47.4749L134.213 47.4564C134.546 47.4194 134.782 47.2295 134.926 46.8823C135.074 46.5305 135.167 45.887 135.204 44.9471L135.315 42.3823H139.37Z" fill="black"/>
<path d="M140.737 45.3268C140.737 44.7411 140.851 44.2134 141.08 43.7435C141.314 43.2759 141.638 42.9148 142.052 42.6601C142.464 42.4009 142.934 42.2712 143.46 42.2712C144.279 42.2712 144.941 42.556 145.441 43.1231C145.946 43.6856 146.2 44.4379 146.2 45.3824V45.4472C146.2 46.0351 146.089 46.5583 145.867 47.0212C145.645 47.4842 145.323 47.8453 144.904 48.1046C144.49 48.3638 144.015 48.4935 143.478 48.4935C142.663 48.4935 142.001 48.2134 141.497 47.6509C140.99 47.0837 140.737 46.3337 140.737 45.4009V45.3268ZM141.774 45.4472C141.774 46.1138 141.927 46.6509 142.237 47.0583C142.545 47.4611 142.96 47.6601 143.478 47.6601C143.997 47.6601 144.406 47.4564 144.71 47.049C145.017 46.637 145.172 46.0629 145.172 45.3268C145.172 44.674 145.015 44.1416 144.7 43.7342C144.39 43.3222 143.978 43.1138 143.46 43.1138C142.953 43.1138 142.545 43.3175 142.237 43.7249C141.927 44.1277 141.774 44.7018 141.774 45.4472Z" fill="black"/>
<path d="M149.617 45.3731H146.914V44.5397H149.617V45.3731Z" fill="black"/>
<path d="M153.248 42.7249C154.001 42.7249 154.603 42.9796 155.054 43.4842C155.51 43.9911 155.739 44.6555 155.739 45.4749V45.5675C155.739 46.137 155.628 46.6416 155.406 47.0861C155.188 47.5305 154.878 47.8777 154.471 48.1231C154.063 48.3708 153.593 48.4935 153.063 48.4935C152.253 48.4935 151.603 48.2249 151.109 47.6879C150.621 47.1509 150.378 46.4286 150.378 45.5212V45.0212C150.378 43.762 150.612 42.762 151.082 42.0212C151.549 41.2759 152.239 40.8222 153.147 40.6601C153.665 40.5675 154.012 40.4564 154.193 40.3268C154.378 40.1925 154.471 40.0074 154.471 39.7712H155.313C155.313 40.2342 155.207 40.5953 154.998 40.8546C154.788 41.1138 154.454 41.2967 153.998 41.4009L153.23 41.5768C152.623 41.7203 152.167 41.9634 151.859 42.3083C151.556 42.6486 151.359 43.1023 151.267 43.6694C151.809 43.0398 152.471 42.7249 153.248 42.7249ZM153.054 43.5675C152.547 43.5675 152.147 43.7388 151.85 44.0768C151.554 44.4171 151.406 44.887 151.406 45.4842V45.5675C151.406 46.2157 151.554 46.7296 151.85 47.1046C152.151 47.4749 152.556 47.6601 153.063 47.6601C153.568 47.6601 153.971 47.4726 154.267 47.0953C154.563 46.7203 154.711 46.1694 154.711 45.4472C154.711 44.88 154.563 44.4263 154.267 44.0861C153.971 43.7411 153.565 43.5675 153.054 43.5675Z" fill="black"/>
<path d="M160.596 48.3824C160.533 48.2666 160.484 48.056 160.447 47.7527C159.971 48.2481 159.403 48.4935 158.744 48.4935C158.151 48.4935 157.663 48.3268 157.281 47.9935C156.903 47.6601 156.716 47.2342 156.716 46.7157C156.716 46.093 156.952 45.6092 157.429 45.262C157.903 44.9171 158.572 44.7435 159.438 44.7435H160.429V44.2712C160.429 43.9148 160.32 43.63 160.105 43.4194C159.894 43.2111 159.579 43.1046 159.16 43.1046C158.795 43.1046 158.489 43.1972 158.244 43.3824C157.996 43.5629 157.873 43.7851 157.873 44.049H156.836C156.836 43.7481 156.94 43.4564 157.151 43.1786C157.366 42.9009 157.656 42.6833 158.021 42.5212C158.385 42.3546 158.785 42.2712 159.225 42.2712C159.915 42.2712 160.457 42.4449 160.846 42.7898C161.239 43.137 161.443 43.6115 161.457 44.2157V46.9842C161.457 47.5351 161.526 47.9703 161.67 48.2898V48.3824H160.596ZM158.892 47.6046C159.211 47.6046 159.515 47.5212 159.799 47.3546C160.089 47.1879 160.299 46.9726 160.429 46.7064V45.4749H159.633C158.373 45.4749 157.744 45.843 157.744 46.5768C157.744 46.8986 157.848 47.1509 158.059 47.3361C158.274 47.5166 158.552 47.6046 158.892 47.6046Z" fill="black"/>
<path d="M166.945 42.3823H167.973V48.3823H166.945V44.012L164.176 48.3823H163.149V42.3823H164.176V46.762L166.945 42.3823ZM167.223 40.1971C167.223 40.6416 167.068 41.0004 166.76 41.2712C166.456 41.5444 166.058 41.6786 165.565 41.6786C165.07 41.6786 164.669 41.5444 164.362 41.2712C164.051 41.0004 163.899 40.6416 163.899 40.1971H164.741C164.741 40.4564 164.808 40.6601 164.945 40.8083C165.086 40.9518 165.292 41.0212 165.565 41.0212C165.824 41.0212 166.024 40.9518 166.167 40.8083C166.315 40.6671 166.389 40.4633 166.389 40.1971H167.223Z" fill="black"/>
<path d="M171.486 45.8268H170.736V48.3823H169.699V42.3823H170.736V44.9194H171.402L173.421 42.3823H174.662L172.291 45.2712L174.865 48.3823H173.56L171.486 45.8268Z" fill="black"/>
</g>
<defs>
<clipPath id="clip0_1_2120">
<rect width="224" height="90" fill="white" transform="translate(0 0.5)"/>
</clipPath>
</defs>
</svg>
