<svg width="13" height="19" viewBox="0 0 13 19" fill="none" xmlns="http://www.w3.org/2000/svg">
<path d="M6.79814 0.227443C6.58492 0.206233 6.3689 0.195523 6.15001 0.195312C5.93133 0.195312 5.71531 0.206023 5.50188 0.227443C1.23223 0.652973 -1.08715 5.57782 0.946767 9.41844L5.48774 17.9931C5.55214 18.1147 5.64769 18.2163 5.76431 18.2871C5.88086 18.3579 6.01414 18.3953 6.15001 18.3953C6.28581 18.3953 6.41909 18.3579 6.53571 18.2871C6.65226 18.2163 6.74788 18.1147 6.81221 17.9931L11.3532 9.41844C13.3872 5.57782 11.0679 0.652973 6.79814 0.227443ZM6.15001 8.42311C5.72588 8.42311 5.3112 8.29522 4.95854 8.05561C4.60581 7.816 4.33092 7.47538 4.16859 7.07694C4.00633 6.6785 3.96384 6.24002 4.04658 5.81708C4.12932 5.39407 4.33358 5.0055 4.63353 4.70051C4.93348 4.39559 5.31561 4.1879 5.73162 4.10376C6.14763 4.01962 6.57883 4.06281 6.97076 4.22787C7.36262 4.39286 7.69757 4.67237 7.93319 5.03098C8.16888 5.38959 8.29467 5.8112 8.29467 6.24247C8.29467 6.82081 8.06871 7.37542 7.66649 7.78436C7.26434 8.19337 6.71883 8.42311 6.15001 8.42311Z" fill="#8557C1"/>
</svg>
