<svg width="13" height="18" viewBox="0 0 13 18" fill="none" xmlns="http://www.w3.org/2000/svg">
<path d="M0.9499 16.0593L3.54291 17.3651C3.74437 17.4665 3.96389 17.5273 4.18887 17.5439C4.41385 17.5606 4.63988 17.5327 4.85408 17.462C5.06828 17.3912 5.26652 17.279 5.43732 17.1318C5.60819 16.9844 5.74833 16.8049 5.84983 16.6034L6.59379 15.126C6.79868 14.7191 6.83354 14.2475 6.69074 13.8148C6.54787 13.3822 6.23903 13.024 5.83212 12.8191L4.85807 12.3286C5.3669 10.0643 6.42404 7.95952 7.93667 6.1993L7.95606 6.17669L8.93004 6.66725C9.33702 6.87214 9.80861 6.907 10.2413 6.7642C10.6739 6.62133 11.0321 6.31249 11.237 5.90558L11.9662 4.45742C12.1712 4.05051 12.206 3.57885 12.0632 3.14618C11.9204 2.71358 11.6115 2.35539 11.2046 2.1505L8.61154 0.844717C8.43444 0.755537 8.23186 0.730337 8.03831 0.773527C7.84476 0.816717 7.67207 0.925497 7.54964 1.08153C4.29499 5.22756 1.90092 9.98168 0.50778 15.0651C0.45542 15.2564 0.470751 15.4599 0.551391 15.6411C0.631961 15.8223 0.77273 15.97 0.9499 16.0593Z" fill="#8557C1"/>
</svg>
