<svg width="515" height="154" viewBox="0 0 515 154" fill="none" xmlns="http://www.w3.org/2000/svg">
<g clip-path="url(#clip0_1_964)">
<g clip-path="url(#clip1_1_964)">
<g clip-path="url(#clip2_1_964)">
<path d="M504.563 0.0758667H10.2972C4.61021 0.0758667 0 4.68608 0 10.3731V143.207C0 148.894 4.61021 153.504 10.2972 153.504H504.563C510.25 153.504 514.86 148.894 514.86 143.207V10.3731C514.86 4.68608 510.25 0.0758667 504.563 0.0758667Z" fill="white"/>
<path d="M21.1711 48.6539V45.0952H21.6983C22.0058 45.0952 22.2749 44.9744 22.5056 44.7328C22.7362 44.4802 22.9339 44.0848 23.0987 43.5465C23.2634 42.9974 23.3952 42.2669 23.4941 41.3553C23.593 40.4437 23.6643 39.3178 23.7083 37.9778L23.7907 34.7156H31.0399V45.0952H32.4897V48.6539H31.1717V46.4133H22.4891V48.6539H21.1711ZM23.6753 45.0952H29.5571V36.0337H25.1581L25.1087 38.159C25.0758 39.543 25.0044 40.7017 24.8945 41.6354C24.7846 42.569 24.6309 43.3159 24.4332 43.876C24.2355 44.4362 23.9829 44.8426 23.6753 45.0952ZM37.9899 46.578C37.3418 46.578 36.7542 46.4627 36.227 46.232C35.6998 45.9904 35.2439 45.6664 34.8595 45.26C34.475 44.8426 34.1785 44.3648 33.9699 43.8266C33.7611 43.2884 33.6568 42.7227 33.6568 42.1296C33.6568 41.5255 33.7611 40.9544 33.9699 40.4162C34.1785 39.8779 34.475 39.4057 34.8595 38.9993C35.2439 38.5819 35.6998 38.2579 36.227 38.0272C36.7651 37.7855 37.3528 37.6648 37.9899 37.6648C38.6379 37.6648 39.2255 37.7855 39.7528 38.0272C40.28 38.2579 40.7357 38.5819 41.1202 38.9993C41.5156 39.4057 41.8177 39.8779 42.0264 40.4162C42.235 40.9544 42.3394 41.5255 42.3394 42.1296C42.3394 42.7227 42.235 43.2884 42.0264 43.8266C41.8177 44.3648 41.5211 44.8426 41.1367 45.26C40.7522 45.6664 40.2909 45.9904 39.7528 46.232C39.2255 46.4627 38.6379 46.578 37.9899 46.578ZM35.1396 42.1461C35.1396 42.7392 35.2659 43.2774 35.5186 43.7607C35.7822 44.2439 36.1281 44.6284 36.5565 44.914C36.9849 45.1886 37.4627 45.3259 37.9899 45.3259C38.5171 45.3259 38.9949 45.1831 39.4233 44.8975C39.8625 44.612 40.2085 44.2275 40.4612 43.7442C40.7248 43.25 40.8566 42.7063 40.8566 42.1131C40.8566 41.52 40.7248 40.9818 40.4612 40.4985C40.2085 40.0153 39.8625 39.6308 39.4233 39.3453C38.9949 39.0597 38.5171 38.9169 37.9899 38.9169C37.4627 38.9169 36.9849 39.0652 36.5565 39.3617C36.1281 39.6473 35.7822 40.0318 35.5186 40.515C35.2659 40.9983 35.1396 41.542 35.1396 42.1461ZM47.9021 46.578C47.2541 46.578 46.6609 46.4627 46.1227 46.232C45.5955 45.9904 45.1342 45.6608 44.7388 45.2435C44.3544 44.8261 44.0523 44.3484 43.8326 43.8101C43.6239 43.2719 43.5196 42.7008 43.5196 42.0967C43.5196 41.2839 43.7008 40.5425 44.0633 39.8725C44.4257 39.2024 44.9365 38.6698 45.5955 38.2744C46.2545 37.8679 47.0178 37.6648 47.8856 37.6648C48.7313 37.6648 49.4672 37.857 50.0933 38.2414C50.7304 38.6149 51.2026 39.1201 51.5102 39.7571L50.0933 40.202C49.8737 39.7956 49.5661 39.4825 49.1707 39.2629C48.7753 39.0322 48.3359 38.9169 47.8526 38.9169C47.3254 38.9169 46.8422 39.0542 46.4028 39.3288C45.9744 39.6034 45.6339 39.9823 45.3813 40.4656C45.1287 40.9379 45.0024 41.4816 45.0024 42.0967C45.0024 42.7008 45.1287 43.25 45.3813 43.7442C45.6449 44.2275 45.9909 44.612 46.4193 44.8975C46.8587 45.1831 47.3419 45.3259 47.8691 45.3259C48.2096 45.3259 48.5336 45.2654 48.8412 45.1446C49.1597 45.0239 49.4343 44.8646 49.6649 44.6669C49.9066 44.4581 50.0714 44.233 50.1592 43.9914L51.5761 44.4197C51.4003 44.8371 51.1313 45.2105 50.7688 45.5401C50.4174 45.8585 49.9945 46.1112 49.5002 46.2979C49.0169 46.4846 48.4842 46.578 47.9021 46.578ZM57.8485 46.578C57.1456 46.578 56.5195 46.4022 55.9703 46.0508C55.4211 45.6994 54.9873 45.2545 54.6688 44.7163V49.9225H53.2189V37.813H54.504V39.4276C54.8444 38.9004 55.2893 38.4775 55.8385 38.159C56.3877 37.8295 56.9863 37.6648 57.6344 37.6648C58.2275 37.6648 58.7712 37.7855 59.2654 38.0272C59.7597 38.2689 60.1881 38.5984 60.5505 39.0158C60.913 39.4331 61.1931 39.9109 61.3908 40.4491C61.5994 40.9763 61.7038 41.531 61.7038 42.1131C61.7038 42.9259 61.5391 43.6729 61.2096 44.3538C60.891 45.0348 60.4407 45.5785 59.8586 45.9849C59.2764 46.3803 58.6064 46.578 57.8485 46.578ZM57.4037 45.3259C57.8321 45.3259 58.2165 45.238 58.557 45.0623C58.9084 44.8756 59.205 44.6339 59.4467 44.3373C59.6993 44.0298 59.8915 43.6838 60.0233 43.2994C60.1551 42.915 60.221 42.5196 60.221 42.1131C60.221 41.6848 60.1441 41.2784 59.9904 40.894C59.8475 40.5096 59.6388 40.169 59.3643 39.8725C59.1007 39.5759 58.7877 39.3453 58.4252 39.1805C58.0736 39.0047 57.6892 38.9169 57.2719 38.9169C57.0083 38.9169 56.7337 38.9663 56.4481 39.0652C56.1735 39.164 55.9099 39.3068 55.6573 39.4935C55.4046 39.6693 55.1904 39.8725 55.0148 40.1031C54.839 40.3338 54.7237 40.5809 54.6688 40.8445V43.2994C54.8335 43.6729 55.0532 44.0133 55.3278 44.3209C55.6023 44.6284 55.9209 44.8756 56.2834 45.0623C56.6458 45.238 57.0192 45.3259 57.4037 45.3259ZM67.2403 46.578C66.5923 46.578 66.0047 46.4627 65.4774 46.232C64.9502 45.9904 64.4945 45.6664 64.11 45.26C63.7256 44.8426 63.429 44.3648 63.2203 43.8266C63.0117 43.2884 62.9072 42.7227 62.9072 42.1296C62.9072 41.5255 63.0117 40.9544 63.2203 40.4162C63.429 39.8779 63.7256 39.4057 64.11 38.9993C64.4945 38.5819 64.9502 38.2579 65.4774 38.0272C66.0157 37.7855 66.6033 37.6648 67.2403 37.6648C67.8884 37.6648 68.476 37.7855 69.0032 38.0272C69.5304 38.2579 69.9863 38.5819 70.3707 38.9993C70.7661 39.4057 71.0682 39.8779 71.2768 40.4162C71.4855 40.9544 71.5898 41.5255 71.5898 42.1296C71.5898 42.7227 71.4855 43.2884 71.2768 43.8266C71.0682 44.3648 70.7716 44.8426 70.3871 45.26C70.0027 45.6664 69.5414 45.9904 69.0032 46.232C68.476 46.4627 67.8884 46.578 67.2403 46.578ZM64.39 42.1461C64.39 42.7392 64.5164 43.2774 64.769 43.7607C65.0326 44.2439 65.3786 44.6284 65.8069 44.914C66.2353 45.1886 66.7131 45.3259 67.2403 45.3259C67.7675 45.3259 68.2453 45.1831 68.6737 44.8975C69.1131 44.612 69.459 44.2275 69.7116 43.7442C69.9753 43.25 70.1071 42.7063 70.1071 42.1131C70.1071 41.52 69.9753 40.9818 69.7116 40.4985C69.459 40.0153 69.1131 39.6308 68.6737 39.3453C68.2453 39.0597 67.7675 38.9169 67.2403 38.9169C66.7131 38.9169 66.2353 39.0652 65.8069 39.3617C65.3786 39.6473 65.0326 40.0318 64.769 40.515C64.5164 40.9983 64.39 41.542 64.39 42.1461ZM78.2235 46.4133V42.9699C77.883 43.1346 77.526 43.2554 77.1526 43.3323C76.7901 43.4093 76.3892 43.4477 75.9499 43.4477C75.0162 43.4477 74.3023 43.206 73.8081 42.7227C73.3247 42.2285 73.0831 41.4925 73.0831 40.515V37.813H74.533V40.3173C74.533 41.0093 74.6757 41.5146 74.9614 41.8331C75.2469 42.1516 75.7028 42.3109 76.3288 42.3109C76.6803 42.3109 77.0263 42.2724 77.3668 42.1955C77.7182 42.1186 78.0038 42.0143 78.2235 41.8825V37.813H79.6898V46.4133H78.2235ZM82.0185 46.4133V37.813H83.4684V41.3717H87.9497V37.813H89.3996V46.4133H87.9497V42.6568H83.4684V46.4133H82.0185ZM91.7204 46.4133V37.813H93.1702V40.7457H94.9166C95.9272 40.7457 96.6905 41.0038 97.2067 41.52C97.7339 42.0253 97.9975 42.6898 97.9975 43.5136C97.9975 44.0627 97.8822 44.557 97.6515 44.9964C97.4319 45.4357 97.1024 45.7817 96.663 46.0343C96.2237 46.2869 95.6745 46.4133 95.0155 46.4133H91.7204ZM93.1702 45.2764H94.8178C95.2242 45.2764 95.5482 45.1995 95.7898 45.0458C96.0425 44.881 96.2292 44.6669 96.35 44.4032C96.4709 44.1396 96.5312 43.8541 96.5312 43.5465C96.5312 43.25 96.4763 42.9753 96.3665 42.7227C96.2567 42.4702 96.0755 42.2669 95.8228 42.1131C95.5702 41.9594 95.2242 41.8825 94.7848 41.8825H93.1702V45.2764ZM99.4803 46.4133V37.8295H100.93V46.4133H99.4803ZM103.256 46.4133V37.8295H104.706V44.4691L109.517 37.813H110.835V46.4133H109.385V39.9054L104.64 46.4133H103.256ZM107.062 36.841C106.271 36.841 105.673 36.6543 105.266 36.2808C104.861 35.8964 104.657 35.4241 104.657 34.8639H105.678C105.678 35.1715 105.783 35.4295 105.991 35.6383C106.212 35.836 106.568 35.9348 107.062 35.9348C107.546 35.9348 107.886 35.8414 108.084 35.6547C108.281 35.457 108.403 35.1934 108.446 34.8639H109.467C109.467 35.4241 109.265 35.8964 108.858 36.2808C108.452 36.6543 107.853 36.841 107.062 36.841ZM117.303 46.4133V37.813H121.751C122.267 37.813 122.695 37.9173 123.036 38.1261C123.377 38.3238 123.629 38.5819 123.794 38.9004C123.97 39.2189 124.058 39.5594 124.058 39.9219C124.058 40.3832 123.947 40.8006 123.728 41.174C123.509 41.5365 123.19 41.8111 122.772 41.9978C123.267 42.1406 123.667 42.3987 123.975 42.7722C124.283 43.1346 124.437 43.5849 124.437 44.1232C124.437 44.6064 124.321 45.0183 124.091 45.3588C123.86 45.6994 123.536 45.963 123.118 46.1496C122.701 46.3254 122.217 46.4133 121.669 46.4133H117.303ZM118.687 45.3918H121.636C121.899 45.3918 122.135 45.3259 122.344 45.1941C122.563 45.0623 122.734 44.8865 122.855 44.6669C122.975 44.4472 123.036 44.2166 123.036 43.9749C123.036 43.7113 122.975 43.4752 122.855 43.2664C122.745 43.0468 122.586 42.8765 122.377 42.7557C122.179 42.6239 121.949 42.558 121.685 42.558H118.687V45.3918ZM118.687 41.6024H121.372C121.636 41.6024 121.866 41.5365 122.064 41.4047C122.262 41.2619 122.415 41.0806 122.525 40.861C122.636 40.6414 122.69 40.4107 122.69 40.169C122.69 39.8066 122.57 39.4935 122.328 39.2299C122.097 38.9663 121.795 38.8345 121.422 38.8345H118.687V41.6024ZM126.264 46.4133V37.813H127.714V40.7457H129.461C130.471 40.7457 131.235 41.0038 131.751 41.52C132.278 42.0253 132.541 42.6898 132.541 43.5136C132.541 44.0627 132.426 44.557 132.195 44.9964C131.976 45.4357 131.647 45.7817 131.207 46.0343C130.767 46.2869 130.218 46.4133 129.559 46.4133H126.264ZM127.714 45.2764H129.362C129.768 45.2764 130.092 45.1995 130.334 45.0458C130.586 44.881 130.773 44.6669 130.894 44.4032C131.014 44.1396 131.075 43.8541 131.075 43.5465C131.075 43.25 131.021 42.9753 130.91 42.7227C130.8 42.4702 130.619 42.2669 130.367 42.1131C130.114 41.9594 129.768 41.8825 129.329 41.8825H127.714V45.2764ZM134.024 46.4133V37.8295H135.474V46.4133H134.024ZM137.8 46.4133V37.813H139.25V41.3553H140.206L142.908 37.813H144.555L141.342 41.9813L144.934 46.4133H143.254L140.206 42.6898H139.25V46.4133H137.8ZM147.431 50.0214C147.245 50.0214 147.052 49.9939 146.855 49.939C146.668 49.8841 146.476 49.8018 146.278 49.6919L146.772 48.7034C146.871 48.7582 146.965 48.7967 147.052 48.8187C147.151 48.8516 147.245 48.8681 147.332 48.8681C147.596 48.8681 147.843 48.7418 148.074 48.4892C148.316 48.2475 148.54 47.8741 148.749 47.3688L149.161 46.3309L145.388 37.813H146.92L149.82 44.9469L152.44 37.813H153.873L149.853 47.8137C149.655 48.3079 149.43 48.7144 149.178 49.0329C148.925 49.3624 148.65 49.6095 148.354 49.7743C148.057 49.939 147.749 50.0214 147.431 50.0214ZM155.322 46.4133V37.813H162.456V46.4133H161.006V39.0981H156.772V46.4133H155.322Z" fill="#2D2D2D"/>
<path d="M311.365 48.6169C310.238 48.6169 309.236 48.3766 308.358 47.8961C307.479 47.4018 306.786 46.7291 306.278 45.8778C305.769 45.0265 305.516 44.0586 305.516 42.974C305.516 41.8756 305.769 40.9077 306.278 40.0702C306.786 39.2189 307.479 38.5531 308.358 38.0725C309.236 37.592 310.238 37.3517 311.365 37.3517C312.504 37.3517 313.513 37.592 314.392 38.0725C315.284 38.5531 315.978 39.2121 316.472 40.0496C316.98 40.8871 317.234 41.8619 317.234 42.974C317.234 44.0586 316.98 45.0265 316.472 45.8778C315.978 46.7291 315.284 47.4018 314.392 47.8961C313.513 48.3766 312.504 48.6169 311.365 48.6169ZM311.365 46.4133C311.996 46.4133 312.559 46.276 313.053 46.0014C313.548 45.7267 313.932 45.3286 314.207 44.8069C314.495 44.2851 314.639 43.6742 314.639 42.974C314.639 42.2601 314.495 41.6491 314.207 41.1411C313.932 40.6193 313.548 40.2212 313.053 39.9466C312.559 39.672 312.003 39.5347 311.385 39.5347C310.753 39.5347 310.191 39.672 309.697 39.9466C309.216 40.2212 308.832 40.6193 308.543 41.1411C308.255 41.6491 308.111 42.2601 308.111 42.974C308.111 43.6742 308.255 44.2851 308.543 44.8069C308.832 45.3286 309.216 45.7267 309.697 46.0014C310.191 46.276 310.747 46.4133 311.365 46.4133ZM321.661 48.4727V39.0405L322.258 39.6583H317.789V37.4753H328.086V39.6583H323.638L324.235 39.0405V48.4727H321.661ZM338.412 48.4727V29.7318L340.056 31.4329H334.145V28.2902H342.161V48.4727H338.412ZM354.583 48.761C352.988 48.761 351.546 48.3574 350.258 47.5501C348.99 46.7428 347.991 45.5702 347.26 44.0325C346.53 42.4756 346.164 40.5919 346.164 38.3814C346.164 36.1709 346.53 34.2968 347.26 32.7592C347.991 31.2022 348.99 30.0201 350.258 29.2128C351.546 28.4055 352.988 28.0019 354.583 28.0019C356.198 28.0019 357.639 28.4055 358.908 29.2128C360.177 30.0201 361.176 31.2022 361.906 32.7592C362.656 34.2968 363.031 36.1709 363.031 38.3814C363.031 40.5919 362.656 42.4756 361.906 44.0325C361.176 45.5702 360.177 46.7428 358.908 47.5501C357.639 48.3574 356.198 48.761 354.583 48.761ZM354.583 45.503C355.525 45.503 356.342 45.2531 357.034 44.7533C357.726 44.2344 358.264 43.4463 358.648 42.3891C359.052 41.3319 359.254 39.996 359.254 38.3814C359.254 36.7476 359.052 35.4117 358.648 34.3738C358.264 33.3166 357.726 32.5381 357.034 32.0384C356.342 31.5194 355.525 31.2599 354.583 31.2599C353.68 31.2599 352.873 31.5194 352.161 32.0384C351.469 32.5381 350.921 33.3166 350.518 34.3738C350.134 35.4117 349.941 36.7476 349.941 38.3814C349.941 39.996 350.134 41.3319 350.518 42.3891C350.921 43.4463 351.469 44.2344 352.161 44.7533C352.873 45.2531 353.68 45.503 354.583 45.503ZM382.269 48.761C380.442 48.761 378.876 48.3766 377.57 47.6077C376.262 46.8197 375.263 45.6856 374.571 44.2055C373.879 42.7255 373.533 40.8994 373.533 38.7274C373.533 36.4209 373.946 34.4698 374.773 32.8745C375.618 31.2792 376.781 30.0682 378.261 29.2416C379.761 28.4151 381.48 28.0019 383.422 28.0019C384.441 28.0019 385.412 28.1076 386.334 28.319C387.276 28.5304 388.074 28.8572 388.728 29.2993L387.344 32.1249C386.785 31.7596 386.18 31.5098 385.527 31.3752C384.893 31.2215 384.219 31.1446 383.509 31.1446C381.606 31.1446 380.096 31.7308 378.982 32.9033C377.867 34.0759 377.31 35.8058 377.31 38.0931C377.31 38.4584 377.319 38.8908 377.339 39.3906C377.357 39.8711 377.425 40.3613 377.541 40.861L376.387 39.5924C376.733 38.8043 377.204 38.1508 377.8 37.6318C378.415 37.0936 379.136 36.6899 379.963 36.4209C380.808 36.1518 381.721 36.0172 382.702 36.0172C384.028 36.0172 385.21 36.2767 386.248 36.7957C387.286 37.2954 388.112 38.0162 388.728 38.9581C389.342 39.8807 389.65 40.9668 389.65 42.2161C389.65 43.5424 389.323 44.6957 388.67 45.676C388.016 46.6563 387.131 47.4155 386.017 47.9537C384.902 48.4919 383.653 48.761 382.269 48.761ZM382.067 45.8201C382.836 45.8201 383.518 45.6856 384.114 45.4165C384.71 45.1282 385.171 44.7245 385.498 44.2055C385.844 43.6866 386.017 43.0811 386.017 42.3891C386.017 41.3319 385.652 40.4958 384.922 39.8807C384.191 39.2657 383.21 38.9581 381.981 38.9581C381.174 38.9581 380.462 39.1118 379.847 39.4194C379.251 39.7077 378.77 40.1114 378.406 40.6303C378.06 41.1493 377.887 41.7452 377.887 42.4179C377.887 43.033 378.049 43.6001 378.377 44.119C378.703 44.638 379.174 45.0512 379.79 45.3588C380.424 45.6664 381.183 45.8201 382.067 45.8201ZM400.028 48.761C398.433 48.761 396.991 48.3574 395.703 47.5501C394.434 46.7428 393.435 45.5702 392.704 44.0325C391.974 42.4756 391.609 40.5919 391.609 38.3814C391.609 36.1709 391.974 34.2968 392.704 32.7592C393.435 31.2022 394.434 30.0201 395.703 29.2128C396.991 28.4055 398.433 28.0019 400.028 28.0019C401.642 28.0019 403.084 28.4055 404.353 29.2128C405.621 30.0201 406.621 31.2022 407.351 32.7592C408.101 34.2968 408.476 36.1709 408.476 38.3814C408.476 40.5919 408.101 42.4756 407.351 44.0325C406.621 45.5702 405.621 46.7428 404.353 47.5501C403.084 48.3574 401.642 48.761 400.028 48.761ZM400.028 45.503C400.97 45.503 401.786 45.2531 402.478 44.7533C403.17 44.2344 403.709 43.4463 404.093 42.3891C404.497 41.3319 404.699 39.996 404.699 38.3814C404.699 36.7476 404.497 35.4117 404.093 34.3738C403.709 33.3166 403.17 32.5381 402.478 32.0384C401.786 31.5194 400.97 31.2599 400.028 31.2599C399.125 31.2599 398.317 31.5194 397.606 32.0384C396.914 32.5381 396.366 33.3166 395.962 34.3738C395.578 35.4117 395.386 36.7476 395.386 38.3814C395.386 39.996 395.578 41.3319 395.962 42.3891C396.366 43.4463 396.914 44.2344 397.606 44.7533C398.317 45.2531 399.125 45.503 400.028 45.503ZM419.428 48.761C417.833 48.761 416.391 48.3574 415.103 47.5501C413.834 46.7428 412.834 45.5702 412.104 44.0325C411.374 42.4756 411.009 40.5919 411.009 38.3814C411.009 36.1709 411.374 34.2968 412.104 32.7592C412.834 31.2022 413.834 30.0201 415.103 29.2128C416.391 28.4055 417.833 28.0019 419.428 28.0019C421.042 28.0019 422.484 28.4055 423.752 29.2128C425.021 30.0201 426.021 31.2022 426.751 32.7592C427.501 34.2968 427.875 36.1709 427.875 38.3814C427.875 40.5919 427.501 42.4756 426.751 44.0325C426.021 45.5702 425.021 46.7428 423.752 47.5501C422.484 48.3574 421.042 48.761 419.428 48.761ZM419.428 45.503C420.37 45.503 421.186 45.2531 421.878 44.7533C422.57 44.2344 423.109 43.4463 423.493 42.3891C423.897 41.3319 424.098 39.996 424.098 38.3814C424.098 36.7476 423.897 35.4117 423.493 34.3738C423.109 33.3166 422.57 32.5381 421.878 32.0384C421.186 31.5194 420.37 31.2599 419.428 31.2599C418.525 31.2599 417.717 31.5194 417.006 32.0384C416.314 32.5381 415.766 33.3166 415.362 34.3738C414.978 35.4117 414.786 36.7476 414.786 38.3814C414.786 39.996 414.978 41.3319 415.362 42.3891C415.766 43.4463 416.314 44.2344 417.006 44.7533C417.717 45.2531 418.525 45.503 419.428 45.503ZM439.363 48.4727V34.0566H445.294C447.189 34.0566 448.679 34.4685 449.763 35.2923C450.862 36.1024 451.411 37.3036 451.411 38.8963C451.411 40.4752 450.862 41.6765 449.763 42.5003C448.679 43.3104 447.189 43.7154 445.294 43.7154H440.846L442.04 42.4797V48.4727H439.363ZM442.04 42.768L440.846 41.553H445.274C446.372 41.553 447.217 41.3264 447.807 40.8734C448.411 40.4066 448.713 39.7544 448.713 38.9169C448.713 38.0794 448.411 37.441 447.807 37.0016C447.217 36.5485 446.372 36.322 445.274 36.322H440.846L442.04 35.004V42.768ZM437.304 46.3309V44.8893H446.571V46.3309H437.304ZM450.83 50.5321L457.626 31.1322H459.933L453.137 50.5321H450.83ZM459.472 48.4727V37.4753H462.17L466.598 45.2806H465.527L470.181 37.4753H472.591L472.612 48.4727H470.284V40.2349L470.696 40.5027L466.577 47.3194H465.465L461.326 40.3173L461.82 40.1937V48.4727H459.472ZM481.193 48.6169C479.971 48.6169 478.9 48.3766 477.981 47.8961C477.074 47.4018 476.367 46.7291 475.859 45.8778C475.365 45.0265 475.118 44.0586 475.118 42.974C475.118 41.8756 475.358 40.9077 475.839 40.0702C476.333 39.2189 477.005 38.5531 477.857 38.0725C478.722 37.592 479.703 37.3517 480.802 37.3517C481.873 37.3517 482.826 37.5852 483.665 38.0519C484.502 38.5187 485.161 39.1777 485.642 40.029C486.122 40.8803 486.363 41.8825 486.363 43.0358C486.363 43.1456 486.355 43.2692 486.342 43.4065C486.342 43.5437 486.335 43.6742 486.321 43.7978H477.157V42.0884H484.962L483.953 42.6239C483.966 41.9924 483.836 41.4363 483.562 40.9557C483.287 40.4752 482.909 40.0977 482.429 39.823C481.962 39.5484 481.42 39.4112 480.802 39.4112C480.17 39.4112 479.614 39.5484 479.134 39.823C478.666 40.0977 478.296 40.4821 478.022 40.9763C477.76 41.4569 477.63 42.0266 477.63 42.6857V43.0976C477.63 43.7566 477.781 44.3401 478.084 44.8481C478.385 45.356 478.811 45.7473 479.36 46.022C479.909 46.2966 480.54 46.4339 481.255 46.4339C481.873 46.4339 482.429 46.3378 482.923 46.1455C483.417 45.9533 483.856 45.6513 484.241 45.2394L485.621 46.8251C485.127 47.4018 484.502 47.848 483.747 48.1638C483.006 48.4658 482.154 48.6169 481.193 48.6169ZM494.182 48.6169C493.029 48.6169 491.999 48.3766 491.093 47.8961C490.2 47.4018 489.5 46.7291 488.992 45.8778C488.485 45.0265 488.23 44.0586 488.23 42.974C488.23 41.8756 488.485 40.9077 488.992 40.0702C489.5 39.2189 490.2 38.5531 491.093 38.0725C491.999 37.592 493.029 37.3517 494.182 37.3517C495.253 37.3517 496.193 37.5714 497.004 38.0107C497.827 38.4363 498.452 39.068 498.878 39.9054L496.901 41.0587C496.571 40.537 496.166 40.1526 495.686 39.9054C495.219 39.6583 494.71 39.5347 494.162 39.5347C493.53 39.5347 492.96 39.672 492.452 39.9466C491.945 40.2212 491.546 40.6193 491.258 41.1411C490.969 41.6491 490.825 42.2601 490.825 42.974C490.825 43.6879 490.969 44.3057 491.258 44.8275C491.546 45.3354 491.945 45.7267 492.452 46.0014C492.96 46.276 493.53 46.4133 494.162 46.4133C494.71 46.4133 495.219 46.2897 495.686 46.0426C496.166 45.7954 496.571 45.411 496.901 44.8893L498.878 46.0426C498.452 46.8663 497.827 47.5048 497.004 47.9578C496.193 48.3972 495.253 48.6169 494.182 48.6169Z" fill="#2D2D2D"/>
<path d="M228.598 70.0968H127.685C125.41 70.0968 123.566 71.9409 123.566 74.2157C123.566 76.4905 125.41 78.3346 127.685 78.3346H228.598C230.873 78.3346 232.717 76.4905 232.717 74.2157C232.717 71.9409 230.873 70.0968 228.598 70.0968Z" fill="#E7DDF3"/>
<path d="M107.091 70.0968H24.7133C22.4385 70.0968 20.5944 71.9409 20.5944 74.2157C20.5944 76.4905 22.4385 78.3346 24.7133 78.3346H107.091C109.366 78.3346 111.21 76.4905 111.21 74.2157C111.21 71.9409 109.366 70.0968 107.091 70.0968Z" fill="#8557C1"/>
<path d="M363.491 70.0968H248.163C245.888 70.0968 244.044 71.9409 244.044 74.2157C244.044 76.4905 245.888 78.3346 248.163 78.3346H363.491C365.766 78.3346 367.61 76.4905 367.61 74.2157C367.61 71.9409 365.766 70.0968 363.491 70.0968Z" fill="#E7DDF3"/>
<path d="M496.325 70.0968H383.056C380.781 70.0968 378.937 71.9409 378.937 74.2157C378.937 76.4905 380.781 78.3346 383.056 78.3346H496.325C498.6 78.3346 500.444 76.4905 500.444 74.2157C500.444 71.9409 498.6 70.0968 496.325 70.0968Z" fill="#E7DDF3"/>
<path d="M21.6447 130.85V122.077H27.6624V123.053H22.7568V125.821H25.5C26.4638 125.821 27.1805 126.048 27.65 126.501C28.1278 126.954 28.3667 127.547 28.3667 128.28C28.3667 128.766 28.2638 129.203 28.0578 129.59C27.8519 129.977 27.543 130.286 27.1311 130.517C26.7192 130.739 26.2002 130.85 25.5741 130.85H21.6447ZM22.7568 129.874H25.4382C25.8666 129.874 26.2126 129.796 26.4762 129.639C26.7398 129.483 26.9292 129.281 27.0446 129.034C27.1681 128.779 27.2299 128.515 27.2299 128.243C27.2299 127.979 27.1764 127.732 27.0693 127.502C26.9622 127.263 26.7768 127.073 26.5132 126.933C26.2496 126.785 25.8789 126.711 25.4011 126.711H22.7568V129.874ZM32.4472 130.974C31.9612 130.974 31.5163 130.887 31.1127 130.714C30.7173 130.533 30.3713 130.29 30.0747 129.985C29.7864 129.672 29.5599 129.314 29.3951 128.91C29.2386 128.507 29.1603 128.078 29.1603 127.625C29.1603 127.016 29.3004 126.46 29.5805 125.957C29.8605 125.455 30.2477 125.051 30.742 124.746C31.2445 124.441 31.817 124.289 32.4596 124.289C33.1103 124.289 33.6746 124.445 34.1524 124.758C34.6384 125.063 35.0133 125.467 35.2769 125.969C35.5487 126.464 35.6846 126.999 35.6846 127.576C35.6846 127.658 35.6805 127.741 35.6723 127.823C35.6723 127.897 35.6682 127.955 35.6599 127.996H30.3095C30.3425 128.416 30.4578 128.791 30.6555 129.12C30.8614 129.442 31.125 129.697 31.4463 129.887C31.7676 130.068 32.1136 130.158 32.4843 130.158C32.8797 130.158 33.2504 130.059 33.5964 129.862C33.9506 129.664 34.1936 129.405 34.3254 129.083L35.2645 129.343C35.1245 129.656 34.9144 129.936 34.6343 130.183C34.3625 130.43 34.0371 130.624 33.6581 130.764C33.2874 130.904 32.8838 130.974 32.4472 130.974ZM30.2724 127.242H34.6714C34.6384 126.822 34.519 126.451 34.3131 126.13C34.1071 125.809 33.8435 125.558 33.5222 125.376C33.201 125.195 32.8467 125.104 32.4596 125.104C32.0806 125.104 31.7305 125.195 31.4092 125.376C31.088 125.558 30.8244 125.809 30.6184 126.13C30.4207 126.451 30.3054 126.822 30.2724 127.242ZM38.9076 130.937C38.2815 130.937 37.7502 130.821 37.3136 130.591C36.8852 130.352 36.5557 130.022 36.325 129.602L37.2147 129.207C37.363 129.47 37.573 129.676 37.8449 129.825C38.125 129.973 38.4627 130.047 38.8581 130.047C39.3277 130.047 39.6984 129.944 39.9702 129.738C40.2421 129.532 40.378 129.256 40.378 128.91C40.378 128.597 40.2668 128.346 40.0444 128.157C39.8302 127.959 39.5254 127.856 39.13 127.848H38.4751V127.131H39.167C39.34 127.131 39.4924 127.09 39.6242 127.007C39.7643 126.917 39.8714 126.797 39.9455 126.649C40.0279 126.501 40.0691 126.336 40.0691 126.155C40.0691 125.866 39.9661 125.636 39.7602 125.463C39.5542 125.282 39.2453 125.191 38.8334 125.191C38.4957 125.191 38.2115 125.257 37.9808 125.389C37.7584 125.52 37.5772 125.718 37.4371 125.982L36.6092 125.537C36.8152 125.15 37.1117 124.849 37.4989 124.635C37.8943 124.413 38.3556 124.301 38.8828 124.301C39.303 124.301 39.6737 124.371 39.9949 124.511C40.3245 124.643 40.5798 124.837 40.7611 125.092C40.9505 125.347 41.0453 125.656 41.0453 126.019C41.0453 126.324 40.9711 126.608 40.8228 126.871C40.6828 127.127 40.4727 127.32 40.1926 127.452C40.5798 127.568 40.8764 127.769 41.0823 128.058C41.2883 128.338 41.3912 128.671 41.3912 129.059C41.3912 129.454 41.2842 129.792 41.07 130.072C40.8558 130.352 40.5633 130.566 40.1926 130.714C39.822 130.863 39.3936 130.937 38.9076 130.937ZM45.8106 130.85V124.4H46.898V127.057H47.6147L49.6412 124.4H50.8768L48.4673 127.526L51.161 130.85H49.9006L47.6147 128.058H46.898V130.85H45.8106ZM54.7101 130.974C54.224 130.974 53.7833 130.887 53.3879 130.714C52.9925 130.533 52.6506 130.29 52.3623 129.985C52.074 129.672 51.8516 129.314 51.695 128.91C51.5385 128.507 51.4603 128.082 51.4603 127.638C51.4603 127.185 51.5385 126.756 51.695 126.353C51.8516 125.949 52.074 125.595 52.3623 125.29C52.6506 124.977 52.9925 124.734 53.3879 124.561C53.7915 124.38 54.2323 124.289 54.7101 124.289C55.1961 124.289 55.6368 124.38 56.0322 124.561C56.4276 124.734 56.7695 124.977 57.0578 125.29C57.3544 125.595 57.5809 125.949 57.7374 126.353C57.8939 126.756 57.9722 127.185 57.9722 127.638C57.9722 128.082 57.8939 128.507 57.7374 128.91C57.5809 129.314 57.3585 129.672 57.0702 129.985C56.7819 130.29 56.4359 130.533 56.0322 130.714C55.6368 130.887 55.1961 130.974 54.7101 130.974ZM52.5724 127.65C52.5724 128.095 52.6671 128.498 52.8566 128.861C53.0543 129.223 53.3138 129.512 53.635 129.726C53.9563 129.932 54.3146 130.035 54.7101 130.035C55.1055 130.035 55.4638 129.928 55.7851 129.714C56.1146 129.499 56.3741 129.211 56.5635 128.849C56.7613 128.478 56.8601 128.07 56.8601 127.625C56.8601 127.18 56.7613 126.777 56.5635 126.414C56.3741 126.052 56.1146 125.763 55.7851 125.549C55.4638 125.335 55.1055 125.228 54.7101 125.228C54.3146 125.228 53.9563 125.339 53.635 125.562C53.3138 125.776 53.0543 126.064 52.8566 126.427C52.6671 126.789 52.5724 127.197 52.5724 127.65ZM59.2775 130.85V124.4H60.4019L62.7991 128.626L65.2087 124.4H66.3084V130.85H65.2705V125.969L63.1451 129.701H62.4531L60.3154 125.969V130.85H59.2775ZM68.0502 130.85V124.413H69.1376V129.392L72.7457 124.4H73.7342V130.85H72.6469V125.969L69.0881 130.85H68.0502ZM78.3261 130.974C77.84 130.974 77.3952 130.887 76.9916 130.714C76.5961 130.533 76.2501 130.286 75.9536 129.973C75.6653 129.66 75.4387 129.302 75.274 128.898C75.1175 128.494 75.0392 128.066 75.0392 127.613C75.0392 127.003 75.1751 126.447 75.447 125.945C75.7188 125.442 76.1019 125.043 76.5961 124.746C77.0904 124.441 77.6629 124.289 78.3137 124.289C78.948 124.289 79.4999 124.433 79.9695 124.721C80.4473 125.002 80.8015 125.38 81.0322 125.858L79.9695 126.192C79.8047 125.887 79.5741 125.652 79.2775 125.488C78.981 125.315 78.6515 125.228 78.289 125.228C77.8936 125.228 77.5311 125.331 77.2016 125.537C76.8803 125.743 76.625 126.027 76.4355 126.39C76.246 126.744 76.1513 127.152 76.1513 127.613C76.1513 128.066 76.246 128.478 76.4355 128.849C76.6332 129.211 76.8927 129.499 77.214 129.714C77.5435 129.928 77.9059 130.035 78.3013 130.035C78.5567 130.035 78.7997 129.989 79.0304 129.899C79.2693 129.808 79.4752 129.689 79.6482 129.541C79.8295 129.384 79.953 129.215 80.0189 129.034L81.0816 129.355C80.9498 129.668 80.748 129.948 80.4761 130.195C80.2125 130.434 79.8954 130.624 79.5247 130.764C79.1622 130.904 78.7627 130.974 78.3261 130.974ZM85.1077 130.974C84.6217 130.974 84.1768 130.887 83.7732 130.714C83.3778 130.533 83.0318 130.286 82.7352 129.973C82.4469 129.66 82.2204 129.302 82.0556 128.898C81.8991 128.494 81.8208 128.066 81.8208 127.613C81.8208 127.003 81.9568 126.447 82.2286 125.945C82.5005 125.442 82.8835 125.043 83.3778 124.746C83.872 124.441 84.4446 124.289 85.0953 124.289C85.7297 124.289 86.2816 124.433 86.7511 124.721C87.2289 125.002 87.5831 125.38 87.8138 125.858L86.7511 126.192C86.5864 125.887 86.3557 125.652 86.0592 125.488C85.7626 125.315 85.4331 125.228 85.0706 125.228C84.6752 125.228 84.3128 125.331 83.9832 125.537C83.662 125.743 83.4066 126.027 83.2171 126.39C83.0277 126.744 82.9329 127.152 82.9329 127.613C82.9329 128.066 83.0277 128.478 83.2171 128.849C83.4148 129.211 83.6743 129.499 83.9956 129.714C84.3251 129.928 84.6876 130.035 85.083 130.035C85.3384 130.035 85.5814 129.989 85.812 129.899C86.0509 129.808 86.2569 129.689 86.4299 129.541C86.6111 129.384 86.7347 129.215 86.8006 129.034L87.8632 129.355C87.7314 129.668 87.5296 129.948 87.2578 130.195C86.9941 130.434 86.677 130.624 86.3063 130.764C85.9438 130.904 85.5443 130.974 85.1077 130.974ZM89.083 130.85V124.413H90.1704V129.392L93.7786 124.4H94.7671V130.85H93.6797V125.969L90.121 130.85H89.083ZM96.4922 130.85V124.413H97.5796V129.392L101.188 124.4H102.176V130.85H101.089V125.969L97.5301 130.85H96.4922ZM107.027 130.85V124.413H108.114V129.392L111.723 124.4H112.711V130.85H111.624V125.969L108.065 130.85H107.027ZM117.561 130.85V124.4H122.911V130.85H121.824V125.364H118.648V130.85H117.561ZM127.524 130.974C127.038 130.974 126.593 130.887 126.189 130.714C125.794 130.533 125.448 130.29 125.151 129.985C124.863 129.672 124.636 129.314 124.472 128.91C124.315 128.507 124.237 128.078 124.237 127.625C124.237 127.016 124.377 126.46 124.657 125.957C124.937 125.455 125.324 125.051 125.818 124.746C126.321 124.441 126.893 124.289 127.536 124.289C128.187 124.289 128.751 124.445 129.229 124.758C129.715 125.063 130.09 125.467 130.353 125.969C130.625 126.464 130.761 126.999 130.761 127.576C130.761 127.658 130.757 127.741 130.749 127.823C130.749 127.897 130.745 127.955 130.736 127.996H125.386C125.419 128.416 125.534 128.791 125.732 129.12C125.938 129.442 126.201 129.697 126.523 129.887C126.844 130.068 127.19 130.158 127.561 130.158C127.956 130.158 128.327 130.059 128.673 129.862C129.027 129.664 129.27 129.405 129.402 129.083L130.341 129.343C130.201 129.656 129.991 129.936 129.711 130.183C129.439 130.43 129.114 130.624 128.735 130.764C128.364 130.904 127.96 130.974 127.524 130.974ZM125.349 127.242H129.748C129.715 126.822 129.595 126.451 129.389 126.13C129.184 125.809 128.92 125.558 128.599 125.376C128.277 125.195 127.923 125.104 127.536 125.104C127.157 125.104 126.807 125.195 126.486 125.376C126.164 125.558 125.901 125.809 125.695 126.13C125.497 126.451 125.382 126.822 125.349 127.242ZM135.442 130.974C134.915 130.974 134.445 130.842 134.034 130.578C133.622 130.315 133.296 129.981 133.057 129.578V133.482H131.97V124.4H132.934V125.611C133.189 125.216 133.523 124.899 133.935 124.66C134.347 124.413 134.796 124.289 135.282 124.289C135.726 124.289 136.134 124.38 136.505 124.561C136.876 124.742 137.197 124.989 137.469 125.302C137.741 125.615 137.951 125.974 138.099 126.377C138.255 126.773 138.334 127.189 138.334 127.625C138.334 128.235 138.21 128.795 137.963 129.306C137.724 129.816 137.386 130.224 136.95 130.529C136.513 130.826 136.011 130.974 135.442 130.974ZM135.109 130.035C135.43 130.035 135.718 129.969 135.973 129.837C136.237 129.697 136.46 129.516 136.641 129.293C136.83 129.063 136.974 128.803 137.073 128.515C137.172 128.227 137.222 127.93 137.222 127.625C137.222 127.304 137.164 126.999 137.049 126.711C136.941 126.423 136.785 126.167 136.579 125.945C136.381 125.722 136.146 125.549 135.875 125.426C135.611 125.294 135.323 125.228 135.01 125.228C134.812 125.228 134.606 125.265 134.392 125.339C134.186 125.413 133.988 125.52 133.799 125.661C133.609 125.792 133.449 125.945 133.317 126.118C133.185 126.291 133.099 126.476 133.057 126.674V128.515C133.181 128.795 133.346 129.05 133.552 129.281C133.758 129.512 133.996 129.697 134.268 129.837C134.54 129.969 134.82 130.035 135.109 130.035ZM142.523 130.974C142.036 130.974 141.592 130.887 141.188 130.714C140.793 130.533 140.447 130.29 140.15 129.985C139.862 129.672 139.635 129.314 139.47 128.91C139.314 128.507 139.236 128.078 139.236 127.625C139.236 127.016 139.376 126.46 139.656 125.957C139.936 125.455 140.323 125.051 140.817 124.746C141.32 124.441 141.892 124.289 142.535 124.289C143.186 124.289 143.75 124.445 144.228 124.758C144.714 125.063 145.089 125.467 145.352 125.969C145.624 126.464 145.76 126.999 145.76 127.576C145.76 127.658 145.756 127.741 145.748 127.823C145.748 127.897 145.743 127.955 145.735 127.996H140.385C140.418 128.416 140.533 128.791 140.731 129.12C140.937 129.442 141.2 129.697 141.522 129.887C141.843 130.068 142.189 130.158 142.56 130.158C142.955 130.158 143.326 130.059 143.672 129.862C144.026 129.664 144.269 129.405 144.401 129.083L145.34 129.343C145.2 129.656 144.99 129.936 144.71 130.183C144.438 130.43 144.112 130.624 143.733 130.764C143.363 130.904 142.959 130.974 142.523 130.974ZM140.348 127.242H144.747C144.714 126.822 144.594 126.451 144.388 126.13C144.182 125.809 143.919 125.558 143.598 125.376C143.276 125.195 142.922 125.104 142.535 125.104C142.156 125.104 141.806 125.195 141.485 125.376C141.163 125.558 140.9 125.809 140.694 126.13C140.496 126.451 140.381 126.822 140.348 127.242ZM146.956 130.85V124.4H152.307V130.85H151.22V125.364H148.044V130.85H146.956ZM153.496 130.9V129.924C153.71 129.924 153.9 129.87 154.065 129.763C154.238 129.648 154.39 129.458 154.522 129.195C154.654 128.923 154.757 128.552 154.831 128.082C154.913 127.605 154.967 126.999 154.991 126.266L155.066 124.4H159.452V130.85H158.365V125.364H156.029L156.005 126.365C155.972 127.246 155.898 127.979 155.782 128.564C155.667 129.149 155.506 129.611 155.3 129.948C155.094 130.286 154.839 130.529 154.534 130.677C154.238 130.826 153.892 130.9 153.496 130.9ZM160.701 128.984C160.701 128.573 160.817 128.218 161.047 127.922C161.286 127.617 161.611 127.382 162.023 127.217C162.435 127.053 162.913 126.97 163.457 126.97C163.745 126.97 164.05 126.995 164.371 127.044C164.692 127.086 164.977 127.152 165.224 127.242V126.773C165.224 126.278 165.075 125.891 164.779 125.611C164.482 125.323 164.062 125.179 163.519 125.179C163.164 125.179 162.822 125.245 162.493 125.376C162.172 125.5 161.83 125.681 161.467 125.92L161.072 125.154C161.492 124.866 161.912 124.651 162.332 124.511C162.752 124.363 163.189 124.289 163.642 124.289C164.466 124.289 165.117 124.52 165.594 124.981C166.072 125.434 166.311 126.068 166.311 126.884V129.615C166.311 129.746 166.336 129.845 166.385 129.911C166.443 129.969 166.534 130.002 166.657 130.01V130.85C166.55 130.867 166.455 130.879 166.373 130.887C166.299 130.896 166.237 130.9 166.188 130.9C165.932 130.9 165.739 130.83 165.607 130.69C165.483 130.55 165.413 130.401 165.397 130.245L165.372 129.837C165.092 130.2 164.725 130.48 164.272 130.677C163.819 130.875 163.37 130.974 162.925 130.974C162.497 130.974 162.114 130.887 161.776 130.714C161.438 130.533 161.175 130.294 160.985 129.998C160.796 129.693 160.701 129.355 160.701 128.984ZM164.902 129.442C165.001 129.326 165.08 129.211 165.137 129.096C165.195 128.972 165.224 128.869 165.224 128.787V127.984C164.968 127.885 164.701 127.811 164.421 127.761C164.14 127.703 163.865 127.675 163.593 127.675C163.041 127.675 162.592 127.786 162.246 128.008C161.908 128.222 161.739 128.519 161.739 128.898C161.739 129.104 161.793 129.306 161.9 129.503C162.015 129.693 162.18 129.849 162.394 129.973C162.616 130.097 162.888 130.158 163.21 130.158C163.547 130.158 163.869 130.092 164.173 129.961C164.478 129.821 164.721 129.648 164.902 129.442ZM169.546 130.85V125.364H167.322V124.4H172.858V125.364H170.634V130.85H169.546ZM173.334 130.85V129.466H174.248V130.85H173.334ZM182.774 130.912C182.156 130.912 181.596 130.789 181.094 130.541C180.591 130.294 180.155 129.961 179.784 129.541C179.422 129.112 179.141 128.634 178.944 128.107C178.746 127.572 178.647 127.024 178.647 126.464C178.647 125.879 178.75 125.323 178.956 124.796C179.17 124.26 179.463 123.786 179.833 123.375C180.212 122.954 180.653 122.625 181.156 122.386C181.658 122.139 182.206 122.015 182.799 122.015C183.417 122.015 183.977 122.143 184.479 122.398C184.982 122.654 185.414 122.996 185.777 123.424C186.139 123.852 186.419 124.33 186.617 124.857C186.815 125.385 186.914 125.924 186.914 126.476C186.914 127.061 186.811 127.621 186.605 128.157C186.399 128.684 186.106 129.157 185.728 129.578C185.357 129.989 184.92 130.315 184.418 130.554C183.915 130.793 183.367 130.912 182.774 130.912ZM179.772 126.464C179.772 126.909 179.842 127.341 179.982 127.761C180.13 128.173 180.336 128.54 180.6 128.861C180.863 129.182 181.18 129.438 181.551 129.627C181.922 129.816 182.334 129.911 182.787 129.911C183.256 129.911 183.676 129.812 184.047 129.615C184.418 129.417 184.731 129.153 184.986 128.824C185.25 128.494 185.447 128.124 185.579 127.712C185.719 127.3 185.789 126.884 185.789 126.464C185.789 126.019 185.715 125.591 185.567 125.179C185.427 124.767 185.221 124.4 184.949 124.079C184.685 123.749 184.368 123.494 183.998 123.313C183.635 123.123 183.231 123.029 182.787 123.029C182.317 123.029 181.897 123.127 181.526 123.325C181.156 123.515 180.838 123.774 180.575 124.104C180.319 124.433 180.122 124.804 179.982 125.216C179.842 125.619 179.772 126.035 179.772 126.464ZM188.213 130.85V124.4H193.564V130.85H192.476V125.364H189.301V130.85H188.213ZM194.753 130.9V129.924C194.967 129.924 195.157 129.87 195.321 129.763C195.494 129.648 195.647 129.458 195.779 129.195C195.91 128.923 196.013 128.552 196.088 128.082C196.17 127.605 196.223 126.999 196.248 126.266L196.322 124.4H200.709V130.85H199.622V125.364H197.286L197.261 126.365C197.228 127.246 197.154 127.979 197.039 128.564C196.924 129.149 196.763 129.611 196.557 129.948C196.351 130.286 196.096 130.529 195.791 130.677C195.494 130.826 195.148 130.9 194.753 130.9ZM201.959 128.984C201.959 128.573 202.074 128.218 202.305 127.922C202.544 127.617 202.869 127.382 203.281 127.217C203.693 127.053 204.171 126.97 204.715 126.97C205.003 126.97 205.308 126.995 205.629 127.044C205.95 127.086 206.234 127.152 206.482 127.242V126.773C206.482 126.278 206.333 125.891 206.037 125.611C205.74 125.323 205.32 125.179 204.776 125.179C204.422 125.179 204.08 125.245 203.751 125.376C203.429 125.5 203.088 125.681 202.725 125.92L202.33 125.154C202.75 124.866 203.17 124.651 203.59 124.511C204.01 124.363 204.447 124.289 204.9 124.289C205.724 124.289 206.374 124.52 206.852 124.981C207.33 125.434 207.569 126.068 207.569 126.884V129.615C207.569 129.746 207.594 129.845 207.643 129.911C207.701 129.969 207.791 130.002 207.915 130.01V130.85C207.808 130.867 207.713 130.879 207.631 130.887C207.557 130.896 207.495 130.9 207.445 130.9C207.19 130.9 206.996 130.83 206.865 130.69C206.741 130.55 206.671 130.401 206.655 130.245L206.63 129.837C206.35 130.2 205.983 130.48 205.53 130.677C205.077 130.875 204.628 130.974 204.183 130.974C203.755 130.974 203.372 130.887 203.034 130.714C202.696 130.533 202.433 130.294 202.243 129.998C202.054 129.693 201.959 129.355 201.959 128.984ZM206.16 129.442C206.259 129.326 206.337 129.211 206.395 129.096C206.453 128.972 206.482 128.869 206.482 128.787V127.984C206.226 127.885 205.958 127.811 205.678 127.761C205.398 127.703 205.122 127.675 204.85 127.675C204.299 127.675 203.85 127.786 203.504 128.008C203.166 128.222 202.997 128.519 202.997 128.898C202.997 129.104 203.051 129.306 203.158 129.503C203.273 129.693 203.438 129.849 203.652 129.973C203.874 130.097 204.146 130.158 204.467 130.158C204.805 130.158 205.126 130.092 205.431 129.961C205.736 129.821 205.979 129.648 206.16 129.442ZM210.804 130.85V125.364H208.58V124.4H214.116V125.364H211.892V130.85H210.804ZM214.702 128.984C214.702 128.573 214.817 128.218 215.048 127.922C215.287 127.617 215.612 127.382 216.024 127.217C216.436 127.053 216.914 126.97 217.457 126.97C217.746 126.97 218.05 126.995 218.372 127.044C218.693 127.086 218.977 127.152 219.224 127.242V126.773C219.224 126.278 219.076 125.891 218.779 125.611C218.483 125.323 218.063 125.179 217.519 125.179C217.165 125.179 216.823 125.245 216.493 125.376C216.172 125.5 215.83 125.681 215.468 125.92L215.072 125.154C215.493 124.866 215.913 124.651 216.333 124.511C216.753 124.363 217.19 124.289 217.643 124.289C218.466 124.289 219.117 124.52 219.595 124.981C220.073 125.434 220.312 126.068 220.312 126.884V129.615C220.312 129.746 220.336 129.845 220.386 129.911C220.443 129.969 220.534 130.002 220.658 130.01V130.85C220.551 130.867 220.456 130.879 220.373 130.887C220.299 130.896 220.238 130.9 220.188 130.9C219.933 130.9 219.739 130.83 219.607 130.69C219.484 130.55 219.414 130.401 219.397 130.245L219.373 129.837C219.092 130.2 218.726 130.48 218.273 130.677C217.82 130.875 217.371 130.974 216.926 130.974C216.498 130.974 216.115 130.887 215.777 130.714C215.439 130.533 215.175 130.294 214.986 129.998C214.797 129.693 214.702 129.355 214.702 128.984ZM218.903 129.442C219.002 129.326 219.08 129.211 219.138 129.096C219.195 128.972 219.224 128.869 219.224 128.787V127.984C218.969 127.885 218.701 127.811 218.421 127.761C218.141 127.703 217.865 127.675 217.593 127.675C217.041 127.675 216.592 127.786 216.246 128.008C215.909 128.222 215.74 128.519 215.74 128.898C215.74 129.104 215.793 129.306 215.9 129.503C216.016 129.693 216.18 129.849 216.395 129.973C216.617 130.097 216.889 130.158 217.21 130.158C217.548 130.158 217.869 130.092 218.174 129.961C218.479 129.821 218.722 129.648 218.903 129.442ZM225.163 130.85V124.4H230.513V130.85H229.426V125.364H226.25V130.85H225.163ZM235.743 130.974C235.216 130.974 234.746 130.842 234.334 130.578C233.923 130.315 233.597 129.981 233.358 129.578V133.482H232.271V124.4H233.235V125.611C233.49 125.216 233.824 124.899 234.236 124.66C234.647 124.413 235.096 124.289 235.582 124.289C236.027 124.289 236.435 124.38 236.806 124.561C237.176 124.742 237.498 124.989 237.77 125.302C238.041 125.615 238.251 125.974 238.4 126.377C238.556 126.773 238.635 127.189 238.635 127.625C238.635 128.235 238.511 128.795 238.264 129.306C238.025 129.816 237.687 130.224 237.251 130.529C236.814 130.826 236.311 130.974 235.743 130.974ZM235.409 130.035C235.731 130.035 236.019 129.969 236.274 129.837C236.538 129.697 236.76 129.516 236.942 129.293C237.131 129.063 237.275 128.803 237.374 128.515C237.473 128.227 237.522 127.93 237.522 127.625C237.522 127.304 237.465 126.999 237.349 126.711C237.242 126.423 237.086 126.167 236.88 125.945C236.682 125.722 236.447 125.549 236.176 125.426C235.912 125.294 235.624 125.228 235.311 125.228C235.113 125.228 234.907 125.265 234.693 125.339C234.487 125.413 234.289 125.52 234.1 125.661C233.91 125.792 233.75 125.945 233.618 126.118C233.486 126.291 233.399 126.476 233.358 126.674V128.515C233.482 128.795 233.647 129.05 233.853 129.281C234.058 129.512 234.297 129.697 234.569 129.837C234.841 129.969 235.121 130.035 235.409 130.035ZM242.786 130.974C242.3 130.974 241.86 130.887 241.464 130.714C241.069 130.533 240.727 130.29 240.439 129.985C240.15 129.672 239.928 129.314 239.771 128.91C239.615 128.507 239.537 128.082 239.537 127.638C239.537 127.185 239.615 126.756 239.771 126.353C239.928 125.949 240.15 125.595 240.439 125.29C240.727 124.977 241.069 124.734 241.464 124.561C241.868 124.38 242.309 124.289 242.786 124.289C243.272 124.289 243.713 124.38 244.109 124.561C244.504 124.734 244.846 124.977 245.134 125.29C245.431 125.595 245.657 125.949 245.814 126.353C245.97 126.756 246.049 127.185 246.049 127.638C246.049 128.082 245.97 128.507 245.814 128.91C245.657 129.314 245.435 129.672 245.146 129.985C244.858 130.29 244.512 130.533 244.109 130.714C243.713 130.887 243.272 130.974 242.786 130.974ZM240.649 127.65C240.649 128.095 240.743 128.498 240.933 128.861C241.131 129.223 241.39 129.512 241.711 129.726C242.033 129.932 242.391 130.035 242.786 130.035C243.182 130.035 243.54 129.928 243.861 129.714C244.191 129.499 244.45 129.211 244.64 128.849C244.838 128.478 244.936 128.07 244.936 127.625C244.936 127.18 244.838 126.777 244.64 126.414C244.45 126.052 244.191 125.763 243.861 125.549C243.54 125.335 243.182 125.228 242.786 125.228C242.391 125.228 242.033 125.339 241.711 125.562C241.39 125.776 241.131 126.064 240.933 126.427C240.743 126.789 240.649 127.197 240.649 127.65ZM247.354 130.85V124.413H248.442V129.392L252.05 124.4H253.038V130.85H251.951V125.969L248.392 130.85H247.354ZM257.63 130.974C257.144 130.974 256.699 130.887 256.295 130.714C255.9 130.533 255.554 130.286 255.257 129.973C254.969 129.66 254.742 129.302 254.578 128.898C254.421 128.494 254.343 128.066 254.343 127.613C254.343 127.003 254.479 126.447 254.751 125.945C255.023 125.442 255.406 125.043 255.9 124.746C256.394 124.441 256.967 124.289 257.617 124.289C258.252 124.289 258.804 124.433 259.273 124.721C259.751 125.002 260.105 125.38 260.336 125.858L259.273 126.192C259.108 125.887 258.878 125.652 258.581 125.488C258.285 125.315 257.955 125.228 257.593 125.228C257.197 125.228 256.835 125.331 256.505 125.537C256.184 125.743 255.929 126.027 255.739 126.39C255.55 126.744 255.455 127.152 255.455 127.613C255.455 128.066 255.55 128.478 255.739 128.849C255.937 129.211 256.196 129.499 256.518 129.714C256.847 129.928 257.21 130.035 257.605 130.035C257.86 130.035 258.103 129.989 258.334 129.899C258.573 129.808 258.779 129.689 258.952 129.541C259.133 129.384 259.257 129.215 259.323 129.034L260.385 129.355C260.253 129.668 260.052 129.948 259.78 130.195C259.516 130.434 259.199 130.624 258.828 130.764C258.466 130.904 258.066 130.974 257.63 130.974ZM262.1 124.4L263.805 126.773L263.904 126.97L264.015 126.773L265.708 124.4H266.919L264.534 127.638L266.931 130.85H265.72L264.015 128.49L263.904 128.305L263.805 128.49L262.1 130.85H260.889L263.286 127.638L260.901 124.4H262.1ZM270.77 130.974C270.284 130.974 269.843 130.887 269.448 130.714C269.052 130.533 268.711 130.29 268.422 129.985C268.134 129.672 267.912 129.314 267.755 128.91C267.599 128.507 267.52 128.082 267.52 127.638C267.52 127.185 267.599 126.756 267.755 126.353C267.912 125.949 268.134 125.595 268.422 125.29C268.711 124.977 269.052 124.734 269.448 124.561C269.852 124.38 270.292 124.289 270.77 124.289C271.256 124.289 271.697 124.38 272.092 124.561C272.488 124.734 272.829 124.977 273.118 125.29C273.414 125.595 273.641 125.949 273.797 126.353C273.954 126.756 274.032 127.185 274.032 127.638C274.032 128.082 273.954 128.507 273.797 128.91C273.641 129.314 273.418 129.672 273.13 129.985C272.842 130.29 272.496 130.533 272.092 130.714C271.697 130.887 271.256 130.974 270.77 130.974ZM268.632 127.65C268.632 128.095 268.727 128.498 268.917 128.861C269.114 129.223 269.374 129.512 269.695 129.726C270.016 129.932 270.375 130.035 270.77 130.035C271.165 130.035 271.524 129.928 271.845 129.714C272.175 129.499 272.434 129.211 272.624 128.849C272.821 128.478 272.92 128.07 272.92 127.625C272.92 127.18 272.821 126.777 272.624 126.414C272.434 126.052 272.175 125.763 271.845 125.549C271.524 125.335 271.165 125.228 270.77 125.228C270.375 125.228 270.016 125.339 269.695 125.562C269.374 125.776 269.114 126.064 268.917 126.427C268.727 126.789 268.632 127.197 268.632 127.65ZM274.634 132.37V129.887H274.769C274.951 129.887 275.115 129.833 275.264 129.726C275.42 129.619 275.556 129.433 275.671 129.17C275.795 128.898 275.894 128.527 275.968 128.058C276.042 127.588 276.092 126.991 276.116 126.266L276.178 124.4H280.565V129.887H281.442V132.37H280.478V130.85H275.597V132.37H274.634ZM276.289 129.887H279.477V125.364H277.142L277.105 126.365C277.08 127.065 277.031 127.654 276.957 128.132C276.891 128.601 276.8 128.976 276.685 129.256C276.578 129.536 276.446 129.746 276.289 129.887ZM282.639 130.85V124.413H283.726V129.392L287.334 124.4H288.323V130.85H287.235V125.969L283.677 130.85H282.639ZM291.629 130.85V125.364H289.405V124.4H294.941V125.364H292.716V130.85H291.629ZM302.631 130.974C302.103 130.974 301.634 130.842 301.222 130.578C300.81 130.315 300.485 129.981 300.246 129.578V133.482H299.158V124.4H300.122V125.611C300.378 125.216 300.711 124.899 301.123 124.66C301.535 124.413 301.984 124.289 302.47 124.289C302.915 124.289 303.323 124.38 303.693 124.561C304.064 124.742 304.385 124.989 304.657 125.302C304.929 125.615 305.139 125.974 305.287 126.377C305.444 126.773 305.522 127.189 305.522 127.625C305.522 128.235 305.398 128.795 305.151 129.306C304.912 129.816 304.575 130.224 304.138 130.529C303.702 130.826 303.199 130.974 302.631 130.974ZM302.297 130.035C302.618 130.035 302.907 129.969 303.162 129.837C303.426 129.697 303.648 129.516 303.829 129.293C304.019 129.063 304.163 128.803 304.262 128.515C304.361 128.227 304.41 127.93 304.41 127.625C304.41 127.304 304.352 126.999 304.237 126.711C304.13 126.423 303.973 126.167 303.767 125.945C303.57 125.722 303.335 125.549 303.063 125.426C302.799 125.294 302.511 125.228 302.198 125.228C302 125.228 301.794 125.265 301.58 125.339C301.374 125.413 301.177 125.52 300.987 125.661C300.798 125.792 300.637 125.945 300.505 126.118C300.373 126.291 300.287 126.476 300.246 126.674V128.515C300.369 128.795 300.534 129.05 300.74 129.281C300.946 129.512 301.185 129.697 301.457 129.837C301.729 129.969 302.009 130.035 302.297 130.035ZM306.35 128.984C306.35 128.573 306.465 128.218 306.696 127.922C306.935 127.617 307.26 127.382 307.672 127.217C308.084 127.053 308.562 126.97 309.105 126.97C309.394 126.97 309.699 126.995 310.02 127.044C310.341 127.086 310.625 127.152 310.872 127.242V126.773C310.872 126.278 310.724 125.891 310.428 125.611C310.131 125.323 309.711 125.179 309.167 125.179C308.813 125.179 308.471 125.245 308.142 125.376C307.82 125.5 307.479 125.681 307.116 125.92L306.721 125.154C307.141 124.866 307.561 124.651 307.981 124.511C308.401 124.363 308.838 124.289 309.291 124.289C310.115 124.289 310.765 124.52 311.243 124.981C311.721 125.434 311.96 126.068 311.96 126.884V129.615C311.96 129.746 311.985 129.845 312.034 129.911C312.092 129.969 312.182 130.002 312.306 130.01V130.85C312.199 130.867 312.104 130.879 312.022 130.887C311.948 130.896 311.886 130.9 311.836 130.9C311.581 130.9 311.387 130.83 311.256 130.69C311.132 130.55 311.062 130.401 311.045 130.245L311.021 129.837C310.741 130.2 310.374 130.48 309.921 130.677C309.468 130.875 309.019 130.974 308.574 130.974C308.146 130.974 307.763 130.887 307.425 130.714C307.087 130.533 306.824 130.294 306.634 129.998C306.445 129.693 306.35 129.355 306.35 128.984ZM310.551 129.442C310.65 129.326 310.728 129.211 310.786 129.096C310.844 128.972 310.872 128.869 310.872 128.787V127.984C310.617 127.885 310.349 127.811 310.069 127.761C309.789 127.703 309.513 127.675 309.241 127.675C308.69 127.675 308.241 127.786 307.895 128.008C307.557 128.222 307.388 128.519 307.388 128.898C307.388 129.104 307.441 129.306 307.549 129.503C307.664 129.693 307.829 129.849 308.043 129.973C308.265 130.097 308.537 130.158 308.858 130.158C309.196 130.158 309.517 130.092 309.822 129.961C310.127 129.821 310.37 129.648 310.551 129.442ZM315.713 130.937C315.087 130.937 314.556 130.821 314.119 130.591C313.691 130.352 313.361 130.022 313.131 129.602L314.02 129.207C314.169 129.47 314.379 129.676 314.651 129.825C314.931 129.973 315.268 130.047 315.664 130.047C316.133 130.047 316.504 129.944 316.776 129.738C317.048 129.532 317.184 129.256 317.184 128.91C317.184 128.597 317.072 128.346 316.85 128.157C316.636 127.959 316.331 127.856 315.936 127.848H315.281V127.131H315.973C316.146 127.131 316.298 127.09 316.43 127.007C316.57 126.917 316.677 126.797 316.751 126.649C316.834 126.501 316.875 126.336 316.875 126.155C316.875 125.866 316.772 125.636 316.566 125.463C316.36 125.282 316.051 125.191 315.639 125.191C315.301 125.191 315.017 125.257 314.786 125.389C314.564 125.52 314.383 125.718 314.243 125.982L313.415 125.537C313.621 125.15 313.917 124.849 314.305 124.635C314.7 124.413 315.161 124.301 315.689 124.301C316.109 124.301 316.479 124.371 316.801 124.511C317.13 124.643 317.385 124.837 317.567 125.092C317.756 125.347 317.851 125.656 317.851 126.019C317.851 126.324 317.777 126.608 317.628 126.871C317.488 127.127 317.278 127.32 316.998 127.452C317.385 127.568 317.682 127.769 317.888 128.058C318.094 128.338 318.197 128.671 318.197 129.059C318.197 129.454 318.09 129.792 317.876 130.072C317.661 130.352 317.369 130.566 316.998 130.714C316.628 130.863 316.199 130.937 315.713 130.937ZM322.616 130.85V124.4H325.953C326.34 124.4 326.661 124.478 326.917 124.635C327.172 124.783 327.361 124.977 327.485 125.216C327.617 125.455 327.683 125.71 327.683 125.982C327.683 126.328 327.6 126.641 327.436 126.921C327.271 127.193 327.032 127.399 326.719 127.539C327.09 127.646 327.39 127.839 327.621 128.12C327.852 128.391 327.967 128.729 327.967 129.133C327.967 129.495 327.88 129.804 327.707 130.059C327.534 130.315 327.291 130.513 326.978 130.653C326.665 130.784 326.303 130.85 325.891 130.85H322.616ZM323.654 130.084H325.866C326.064 130.084 326.241 130.035 326.398 129.936C326.562 129.837 326.69 129.705 326.781 129.541C326.871 129.376 326.917 129.203 326.917 129.022C326.917 128.824 326.871 128.647 326.781 128.49C326.698 128.325 326.579 128.198 326.422 128.107C326.274 128.008 326.101 127.959 325.903 127.959H323.654V130.084ZM323.654 127.242H325.669C325.866 127.242 326.039 127.193 326.188 127.094C326.336 126.987 326.451 126.851 326.534 126.686C326.616 126.521 326.657 126.348 326.657 126.167C326.657 125.895 326.566 125.661 326.385 125.463C326.212 125.265 325.986 125.166 325.706 125.166H323.654V127.242ZM332.463 130.85V124.4H333.587L335.984 128.626L338.394 124.4H339.494V130.85H338.456V125.969L336.33 129.701H335.638L333.501 125.969V130.85H332.463ZM344.103 130.974C343.617 130.974 343.172 130.887 342.768 130.714C342.373 130.533 342.027 130.29 341.73 129.985C341.442 129.672 341.215 129.314 341.051 128.91C340.894 128.507 340.816 128.078 340.816 127.625C340.816 127.016 340.956 126.46 341.236 125.957C341.516 125.455 341.903 125.051 342.397 124.746C342.9 124.441 343.472 124.289 344.115 124.289C344.766 124.289 345.33 124.445 345.808 124.758C346.294 125.063 346.669 125.467 346.932 125.969C347.204 126.464 347.34 126.999 347.34 127.576C347.34 127.658 347.336 127.741 347.328 127.823C347.328 127.897 347.324 127.955 347.315 127.996H341.965C341.998 128.416 342.113 128.791 342.311 129.12C342.517 129.442 342.78 129.697 343.102 129.887C343.423 130.068 343.769 130.158 344.14 130.158C344.535 130.158 344.906 130.059 345.252 129.862C345.606 129.664 345.849 129.405 345.981 129.083L346.92 129.343C346.78 129.656 346.57 129.936 346.29 130.183C346.018 130.43 345.692 130.624 345.314 130.764C344.943 130.904 344.539 130.974 344.103 130.974ZM341.928 127.242H346.327C346.294 126.822 346.174 126.451 345.968 126.13C345.763 125.809 345.499 125.558 345.178 125.376C344.856 125.195 344.502 125.104 344.115 125.104C343.736 125.104 343.386 125.195 343.065 125.376C342.743 125.558 342.48 125.809 342.274 126.13C342.076 126.451 341.961 126.822 341.928 127.242ZM351.403 130.974C350.917 130.974 350.472 130.887 350.069 130.714C349.673 130.533 349.327 130.286 349.031 129.973C348.743 129.66 348.516 129.302 348.351 128.898C348.195 128.494 348.116 128.066 348.116 127.613C348.116 127.003 348.252 126.447 348.524 125.945C348.796 125.442 349.179 125.043 349.673 124.746C350.168 124.441 350.74 124.289 351.391 124.289C352.025 124.289 352.577 124.433 353.047 124.721C353.525 125.002 353.879 125.38 354.109 125.858L353.047 126.192C352.882 125.887 352.651 125.652 352.355 125.488C352.058 125.315 351.729 125.228 351.366 125.228C350.971 125.228 350.608 125.331 350.279 125.537C349.958 125.743 349.702 126.027 349.513 126.39C349.323 126.744 349.229 127.152 349.229 127.613C349.229 128.066 349.323 128.478 349.513 128.849C349.71 129.211 349.97 129.499 350.291 129.714C350.621 129.928 350.983 130.035 351.379 130.035C351.634 130.035 351.877 129.989 352.108 129.899C352.347 129.808 352.552 129.689 352.725 129.541C352.907 129.384 353.03 129.215 353.096 129.034L354.159 129.355C354.027 129.668 353.825 129.948 353.553 130.195C353.29 130.434 352.973 130.624 352.602 130.764C352.239 130.904 351.84 130.974 351.403 130.974ZM354.849 130.85L356.678 128.255C356.257 128.173 355.92 127.975 355.664 127.662C355.409 127.341 355.281 126.913 355.281 126.377C355.281 125.99 355.372 125.648 355.553 125.352C355.734 125.055 355.986 124.82 356.307 124.647C356.636 124.474 357.019 124.388 357.456 124.388H360.1V130.85H359.013V128.428H357.753L356.047 130.85H354.849ZM357.53 127.625H359.013V125.24H357.654C357.267 125.24 356.958 125.352 356.727 125.574C356.496 125.788 356.381 126.064 356.381 126.402C356.381 126.74 356.476 127.028 356.665 127.267C356.863 127.506 357.151 127.625 357.53 127.625ZM366.938 132.37V130.85H361.847V124.4H362.934V129.899H365.924V124.4H367.012V129.899H367.901V132.37H366.938Z" fill="#2D2D2D"/>
<path d="M500.444 107.167H20.5944V109.226H500.444V107.167Z" fill="#8557C1"/>
</g>
</g>
</g>
<defs>
<clipPath id="clip0_1_964">
<rect width="514.86" height="153.42" fill="white" transform="translate(0 0.0800171)"/>
</clipPath>
<clipPath id="clip1_1_964">
<rect width="514.86" height="153.42" fill="white" transform="translate(0 0.0800171)"/>
</clipPath>
<clipPath id="clip2_1_964">
<rect width="514.86" height="153.428" fill="white" transform="translate(0 0.0758667)"/>
</clipPath>
</defs>
</svg>
