<svg width="16" height="16" viewBox="0 0 16 16" fill="none" xmlns="http://www.w3.org/2000/svg">
<mask id="mask0_1_1049" style="mask-type:luminance" maskUnits="userSpaceOnUse" x="0" y="0" width="16" height="16">
<path d="M8.33712 0.945068H7.62284C3.67795 0.945068 0.47998 4.14303 0.47998 8.08793V8.28078C0.47998 12.2257 3.67795 15.4236 7.62284 15.4236H8.33712C12.282 15.4236 15.48 12.2257 15.48 8.28078V8.08793C15.48 4.14303 12.282 0.945068 8.33712 0.945068Z" fill="white"/>
</mask>
<g mask="url(#mask0_1_1049)">
<mask id="mask1_1_1049" style="mask-type:luminance" maskUnits="userSpaceOnUse" x="0" y="0" width="16" height="16">
<path d="M15.48 0.945068H0.47998V15.4236H15.48V0.945068Z" fill="white"/>
</mask>
<g mask="url(#mask1_1_1049)">
<mask id="mask2_1_1049" style="mask-type:luminance" maskUnits="userSpaceOnUse" x="0" y="0" width="16" height="16">
<path d="M15.4778 0.945068H0.482147V15.4236H15.4778V0.945068Z" fill="white"/>
</mask>
<g mask="url(#mask2_1_1049)">
<path fill-rule="evenodd" clip-rule="evenodd" d="M15.4063 8.98757V7.32933L13.3383 6.66602L12.8586 5.53635L13.7967 3.62936L12.5921 2.45822L10.6626 3.40134L9.50063 2.93496L8.76506 0.945068H7.05947L6.38787 2.9557L5.20459 3.42208L3.24312 2.51004L2.03853 3.68118L3.0086 5.55706L2.5289 6.68675L0.482147 7.3915V9.03935L2.55022 9.70271L3.02993 10.8324L2.09183 12.7394L3.29644 13.9105L5.22591 12.9674L6.38787 13.4338L7.12343 15.4236H8.81842L9.48999 13.413L10.6733 12.9466L12.6347 13.8586L13.8393 12.6876L12.8586 10.8116L13.3596 9.68193L15.4063 8.96685V8.98757ZM7.94427 11.2987C6.17467 11.2987 4.7462 9.91 4.7462 8.18957C4.7462 6.46911 6.17467 5.08032 7.94427 5.08032C9.71385 5.08032 11.1423 6.46911 11.1423 8.18957C11.1423 9.91 9.71385 11.2987 7.94427 11.2987Z" fill="#8557C1"/>
</g>
</g>
</g>
</svg>
