<svg width="207" height="138" viewBox="0 0 207 138" fill="none" xmlns="http://www.w3.org/2000/svg">
<path d="M223.246 -23.8696C210.703 -31.0334 197.354 -35.512 184.43 -41.1353C171.018 -47.0251 158.719 -54.0776 147.415 -65.2832C147.161 -65.5163 146.875 -65.6544 146.6 -65.7158C145.826 -66.122 144.958 -66.2844 144.142 -65.9746C139.396 -64.5105 135.01 -58.5774 131.228 -54.8471C127.34 -50.9948 123.495 -47.1143 119.66 -43.1609C111.471 -34.8092 103.409 -26.2536 95.2835 -17.7957C87.2958 -9.43546 79.4565 -0.844658 71.4899 7.59222C63.4387 16.0978 55.1013 24.0974 47.1984 32.8367C45.5246 34.6623 47.5268 37.6425 49.3489 37.1563C56.4044 42.4179 63.9683 46.1681 71.4687 50.3081C75.2189 52.3814 78.8949 54.6467 82.5286 57.0106C83.4714 57.5953 84.4354 58.3798 85.4418 59.1908C79.9119 62.7208 74.5091 66.6562 69.0533 70.3623C61.0656 75.806 53.0355 81.1051 45.1537 86.8761C29.8563 98.0471 14.9191 110.025 1.48623 124.59C-1.08806 127.415 -0.00752271 131.319 2.24895 133.296C3.1918 135.613 4.93981 137.493 7.46113 137.73C29.083 139.817 50.4082 129.412 70.3139 120.771C92.2006 111.257 114.892 104.891 136.917 95.7775C150.403 90.1835 162.914 82.6164 175.881 75.4923C179.885 73.2756 180.394 67.1711 176.612 63.9625C163.497 52.8234 149.375 43.8352 135.572 34.1472C165.457 19.5559 194.992 3.73974 223.616 -14.1947C226.477 -16.0161 226.17 -22.1837 223.246 -23.8696ZM163.497 69.2512C155.371 73.8018 146.716 77.2438 138.411 80.6736C127.022 85.3518 115.433 89.3272 103.822 93.0996C92.974 96.5907 82.179 100.057 71.5746 104.522C61.5212 108.74 51.5736 113.281 41.34 116.824C34.0303 119.384 26.6782 121.302 19.199 122.202C29.6127 112.392 40.7467 103.702 51.796 95.0836C57.5696 90.5998 63.2691 85.94 68.8944 81.2242C69.3817 80.8764 69.8478 80.577 70.3351 80.226C74.9116 77.1 79.5517 74.07 84.0964 70.7913C87.6453 68.2579 91.4062 65.9313 94.7962 62.921C95.9404 62.5307 96.8832 61.5608 97.2963 60.2928C97.3175 60.2444 97.3387 60.196 97.3704 60.0992C97.6141 59.2686 97.6353 58.3546 97.3704 57.3075C96.1416 52.0616 91.7134 49.9608 88.1009 47.6736C84.0753 45.1692 79.8589 43.152 75.6638 41.3314C68.5236 38.2428 61.3516 35.8219 54.0525 33.9862C70.7589 21.9136 86.1304 5.95274 100.898 -9.36845C108.928 -17.7024 116.969 -26.0865 125.094 -34.2929C129.12 -38.3626 133.199 -42.4526 137.288 -46.4194C140.9 -49.9636 145.752 -53.1564 148.401 -57.9746C156.304 -46.6754 168.561 -39.8975 179.207 -34.6007C189.632 -29.3858 200.374 -25.1968 210.628 -19.5479C180.722 -4.044 150.837 11.5362 120.454 25.5349C115.708 27.7414 115.232 35.602 119.617 39.0365C133.686 50.2192 148.687 59.618 163.497 69.2512Z" fill="#F4BC3D"/>
</svg>
