<?xml version="1.0" encoding="UTF-8"?> <svg xmlns="http://www.w3.org/2000/svg" width="27" height="24" viewBox="0 0 27 24" fill="none"><path d="M25.0731 0.0142091C24.6243 -0.0327938 24.1365 0.0364187 23.6463 0.227763C23.0387 0.463777 13.5173 4.41889 4.64171 8.10844L1.70899 9.32726C0.573377 9.78195 0 10.5214 0 11.5175C0 12.2149 0.298884 13.1608 1.72482 13.7181L6.67509 15.6766C7.10314 16.9447 8.09735 19.889 8.34716 20.6717C8.49569 21.1357 8.87087 22.3047 9.81879 22.578C10.0132 22.6434 10.2161 22.677 10.4227 22.677C11.0209 22.677 11.4516 22.4021 11.6623 22.2421L14.8086 19.6143L18.6301 23.1041C18.7773 23.2521 19.5564 24 20.6028 24C21.9086 24 22.8991 22.9266 23.1057 21.8879C23.2178 21.3185 26.9034 3.04818 26.9034 3.05085C27.2343 1.58543 26.6394 0.825236 26.2573 0.501217C25.9298 0.224534 25.5219 0.0612118 25.0731 0.0142091ZM24.1791 2.89459C23.67 5.41474 20.8949 19.1707 20.4736 21.1535L14.8877 16.0516L11.0979 19.2211L12.1476 15.1661C12.1476 15.1661 19.3887 7.9282 19.8248 7.50684C20.1759 7.16949 20.2494 7.05123 20.2494 6.93389C20.2494 6.77788 20.1681 6.66564 19.9804 6.66564C19.8116 6.66564 19.5824 6.82536 19.4609 6.90003C17.917 7.85051 11.3429 11.5489 8.10716 13.3666L3.41271 11.5149L5.69137 10.5695C11.4964 8.15604 21.8349 3.85731 24.1791 2.89459Z" fill="#8557C1"></path></svg> 