<svg width="40" height="41" viewBox="0 0 40 41" fill="none" xmlns="http://www.w3.org/2000/svg">
<rect width="40" height="40" transform="translate(0 0.5)" fill="#37AEE2"/>
<path d="M20 13.22C19.0613 13.22 18.1819 13.3977 17.3618 13.7531C16.5416 14.1085 15.824 14.5938 15.2089 15.2089C14.5937 15.824 14.1085 16.5417 13.7531 17.3618C13.3977 18.182 13.22 19.0614 13.22 20C13.22 20.9387 13.3977 21.8181 13.7531 22.6382C14.1085 23.4584 14.5937 24.176 15.2089 24.7911C15.824 25.4063 16.5416 25.8915 17.3618 26.2469C18.1819 26.6023 19.0613 26.78 20 26.78C20.9386 26.78 21.818 26.6023 22.6382 26.2469C23.4583 25.8915 24.176 25.4063 24.7911 24.7911C25.4062 24.176 25.8915 23.4584 26.2469 22.6382C26.6023 21.8181 26.78 20.9387 26.78 20C26.78 19.0614 26.6023 18.182 26.2469 17.3618C25.8915 16.5417 25.4062 15.824 24.7911 15.2089C24.176 14.5938 23.4583 14.1085 22.6382 13.7531C21.818 13.3977 20.9386 13.22 20 13.22ZM23.3353 17.8676L22.2144 23.103C22.178 23.2943 22.1051 23.4128 21.9957 23.4584C21.8863 23.5039 21.7542 23.4812 21.5993 23.39L19.9043 22.1461L19.0978 22.9389C19.0522 22.9845 19.0044 23.0232 18.9543 23.0551C18.9041 23.087 18.8381 23.103 18.7561 23.103L18.8654 21.3806L22.0094 18.5374C22.0823 18.4736 22.0891 18.4303 22.0299 18.4075C21.9706 18.3848 21.8955 18.4053 21.8043 18.4691L17.9222 20.9159L16.2409 20.3964C16.0586 20.3327 15.9698 20.2484 15.9743 20.1436C15.9789 20.0388 16.0951 19.9408 16.3229 19.8497L22.8569 17.3345C23.0118 17.2798 23.1416 17.2981 23.2464 17.3892C23.3512 17.4803 23.3809 17.6398 23.3353 17.8676Z" fill="white"/>
</svg>
