<svg width="24" height="21" viewBox="0 0 24 21" fill="none" xmlns="http://www.w3.org/2000/svg">
<path d="M21.4614 0.672091C21.0844 0.632611 20.6747 0.69074 20.2629 0.851516C19.7525 1.04976 11.7546 4.37204 4.29905 7.47122L1.83558 8.49509C0.88168 8.87704 0.400024 9.49814 0.400024 10.3349C0.400024 10.9207 0.651101 11.7152 1.84886 12.1834L6.00711 13.8285C6.36663 14.8937 7.20184 17.3669 7.41167 18.0244C7.53641 18.4142 7.85158 19.3961 8.64782 19.6257C8.81111 19.6806 8.98155 19.7088 9.15509 19.7088C9.65758 19.7088 10.0194 19.4779 10.1964 19.3435L12.8392 17.1362L16.0493 20.0676C16.173 20.1919 16.8274 20.8202 17.7064 20.8202C18.8032 20.8202 19.6353 19.9185 19.8088 19.046C19.903 18.5677 22.9989 3.22065 22.9989 3.22284C23.2768 1.9919 22.7771 1.35333 22.4562 1.08117C22.1811 0.848743 21.8384 0.711571 21.4614 0.672091ZM20.7105 3.09163C20.2828 5.20851 17.9517 16.7635 17.5978 18.4291L12.9057 14.1435L9.72226 16.8059L10.604 13.3997C10.604 13.3997 16.6865 7.31985 17.0529 6.96587C17.3478 6.68254 17.4095 6.58317 17.4095 6.48464C17.4095 6.3536 17.3412 6.25927 17.1836 6.25927C17.0418 6.25927 16.8492 6.3935 16.7472 6.45616C15.4503 7.25458 9.92806 10.3612 7.21007 11.8881L3.26669 10.3327L5.1808 9.53854C10.057 7.5112 18.7413 3.9003 20.7105 3.09163Z" fill="#8557C1"/>
</svg>
