<svg width="24" height="15" viewBox="0 0 24 15" fill="none" xmlns="http://www.w3.org/2000/svg">
<path d="M23.6979 1.01105C23.743 0.867328 23.7646 0.734019 23.7587 0.614991C23.744 0.270423 23.5 0.0200195 22.9257 0.0200195H20.3601C19.7124 0.0200195 19.4134 0.400791 19.239 0.782571C19.239 0.782571 17.6397 3.98037 15.7963 6.08902C15.1985 6.69928 14.8947 6.68399 14.5713 6.68399C14.3979 6.68399 13.9598 6.48029 13.9598 5.92144V0.985348C13.9598 0.324688 13.7903 0.0200195 13.2424 0.0200195H8.68653C8.28761 0.0200195 8.07988 0.324687 8.07988 0.630279C8.07988 1.26524 8.95995 1.41753 9.05991 3.19682V6.64594C9.05991 7.48367 8.90997 7.63605 8.58657 7.63605C7.71431 7.63605 5.99743 4.78005 4.84789 1.03676C4.599 0.299907 4.35003 0.0200195 3.7023 0.0200195H1.11216C0.364478 0.0200195 0.23999 0.376096 0.23999 0.756868C0.23999 1.44323 0.82799 5.15418 4.03746 9.42105C6.36493 12.515 9.43127 14.3 12.1458 14.3C13.7903 14.3 13.9588 13.8935 13.9588 13.2585V10.4292C13.9598 9.66666 14.1391 9.53999 14.6625 9.53999C15.0358 9.53999 15.7973 9.77805 17.2673 11.444C18.9627 13.3652 19.2704 14.3 20.2425 14.3H22.8081C23.4039 14.3 23.746 14.0573 23.7597 13.586C23.7626 13.4661 23.745 13.3318 23.7048 13.1824C23.5147 12.634 22.6425 11.2936 21.5547 10.016C20.952 9.30865 20.3572 8.60801 20.0837 8.22724C19.9005 7.97877 19.8309 7.80354 19.8397 7.63605C19.8485 7.4599 19.9426 7.29232 20.0837 7.05813C20.0583 7.05813 23.3745 2.53523 23.6979 1.01105Z" fill="#8557C1"/>
</svg>
