<svg width="40" height="41" viewBox="0 0 40 41" fill="none" xmlns="http://www.w3.org/2000/svg">
<rect width="40" height="40" transform="translate(0 0.5)" fill="#4C75A3"/>
<path d="M27.0273 16.2129C27.082 16.0488 27.0752 15.9098 27.0068 15.7959C26.9385 15.682 26.7812 15.625 26.5352 15.625H24.9355C24.7259 15.625 24.5687 15.6706 24.4639 15.7617C24.359 15.8529 24.2793 15.9577 24.2246 16.0762C24.2246 16.0762 24.179 16.1901 24.0879 16.418C23.9876 16.6367 23.8509 16.9124 23.6777 17.2451C23.5046 17.5778 23.2949 17.9355 23.0488 18.3184C22.8027 18.7012 22.5384 19.0521 22.2559 19.3711C22.0645 19.5625 21.9163 19.6947 21.8115 19.7676C21.7067 19.8405 21.6042 19.877 21.5039 19.877C21.4492 19.877 21.3923 19.8428 21.333 19.7744C21.2738 19.7061 21.2441 19.5853 21.2441 19.4121V16.2129C21.2441 16.0124 21.21 15.8643 21.1416 15.7686C21.0732 15.6729 20.957 15.625 20.793 15.625H18.25C18.1224 15.625 18.0221 15.6637 17.9492 15.7412C17.8763 15.8187 17.8398 15.903 17.8398 15.9941C17.8398 16.1855 17.9401 16.3587 18.1406 16.5137C18.3411 16.6686 18.4551 17.0195 18.4824 17.5664V19.9453C18.4824 20.2005 18.4596 20.3669 18.4141 20.4443C18.3685 20.5218 18.291 20.5605 18.1816 20.5605C18.0449 20.5605 17.8672 20.4421 17.6484 20.2051C17.4297 19.9681 17.195 19.6536 16.9443 19.2617C16.6937 18.8698 16.4453 18.4141 16.1992 17.8945C15.944 17.375 15.7207 16.8281 15.5293 16.2539C15.4473 16.026 15.3561 15.8643 15.2559 15.7686C15.1556 15.6729 15.0007 15.625 14.791 15.625H13.1914C12.9544 15.625 12.8018 15.6706 12.7334 15.7617C12.665 15.8529 12.6309 15.9577 12.6309 16.0762C12.6309 16.1855 12.6719 16.3952 12.7539 16.7051C12.8268 17.015 12.9613 17.4023 13.1572 17.8672C13.3532 18.332 13.6152 18.8652 13.9434 19.4668C14.2715 20.0775 14.6816 20.7292 15.1738 21.4219C15.5111 21.9049 15.8757 22.3288 16.2676 22.6934C16.6595 23.0579 17.0674 23.3656 17.4912 23.6162C17.915 23.8669 18.3503 24.056 18.7969 24.1836C19.2344 24.3112 19.6673 24.375 20.0957 24.375C20.6061 24.375 20.9251 24.3203 21.0527 24.2109C21.1803 24.1016 21.2441 23.9466 21.2441 23.7461C21.2441 22.8346 21.251 22.2741 21.2646 22.0645C21.2783 21.8548 21.4128 21.75 21.668 21.75C21.7865 21.75 21.9642 21.8092 22.2012 21.9277C22.4382 22.0462 22.7936 22.3333 23.2676 22.7891C23.8145 23.3359 24.1904 23.737 24.3955 23.9922C24.6006 24.2474 24.8535 24.375 25.1543 24.375H26.7676C26.9954 24.375 27.1618 24.318 27.2666 24.2041C27.3714 24.0902 27.3919 23.9193 27.3281 23.6914C27.2461 23.4544 27.0775 23.1673 26.8223 22.8301C26.5671 22.4928 26.2982 22.1693 26.0156 21.8594C25.7331 21.5495 25.4733 21.276 25.2363 21.0391C25.0085 20.8112 24.8809 20.679 24.8535 20.6426C24.735 20.4876 24.6849 20.3646 24.7031 20.2734C24.7214 20.1823 24.7715 20.0684 24.8535 19.9316C24.8535 19.9316 24.9583 19.7812 25.168 19.4805C25.3776 19.1797 25.61 18.8265 25.8652 18.4209C26.1204 18.0153 26.3665 17.6074 26.6035 17.1973C26.8314 16.778 26.9727 16.4499 27.0273 16.2129Z" fill="white"/>
</svg>
