<?xml version="1.0" encoding="UTF-8"?> <svg xmlns="http://www.w3.org/2000/svg" width="30" height="30" viewBox="0 0 30 30" fill="none"><path d="M28.9261 7.1798C28.9798 7.00867 29.0055 6.85 28.9985 6.70833C28.981 6.29807 28.6905 6 28.0068 6H24.9525C24.1814 6 23.8255 6.45333 23.6179 6.9078C23.6179 6.9078 21.7139 10.7147 19.5194 13.225C18.8078 13.9515 18.4461 13.9333 18.0611 13.9333C17.8546 13.9333 17.3331 13.6908 17.3331 13.0255V7.1492C17.3331 6.36267 17.1313 6 16.4791 6H11.0554C10.5805 6 10.3332 6.36267 10.3332 6.72647C10.3332 7.4824 11.3809 7.66373 11.4999 9.78193V13.888C11.4999 14.8853 11.3214 15.0667 10.9364 15.0667C9.89805 15.0667 7.85407 11.6667 6.48559 7.2104C6.18926 6.3332 5.89293 6 5.12178 6H2.03832C1.14817 6 1 6.42387 1 6.8772C1 7.69433 1.69999 12.1121 5.52077 17.1917C8.29157 20.875 11.942 23 15.1736 23C17.1313 23 17.3319 22.5161 17.3319 21.7601V18.3919C17.3331 17.4841 17.5466 17.3333 18.1696 17.3333C18.6141 17.3333 19.5206 17.6167 21.2706 19.6C23.2889 21.8871 23.6552 23 24.8125 23H27.8668C28.5761 23 28.9833 22.711 28.9996 22.15C29.0031 22.0072 28.9821 21.8474 28.9343 21.6695C28.708 21.0167 27.6696 19.4209 26.3747 17.9C25.6572 17.0579 24.949 16.2238 24.6235 15.7705C24.4054 15.4747 24.3225 15.2661 24.333 15.0667C24.3435 14.857 24.4555 14.6575 24.6235 14.3787C24.5932 14.3787 28.5411 8.99427 28.9261 7.1798Z" fill="#8557C1"></path></svg> 