<svg width="40" height="41" viewBox="0 0 40 41" fill="none" xmlns="http://www.w3.org/2000/svg">
<rect width="40" height="40" transform="translate(0 0.5)" fill="#1EBEA5"/>
<path d="M24.293 15.6523C24.0013 15.3698 23.6914 15.1146 23.3633 14.8867C23.0352 14.668 22.6888 14.4834 22.3242 14.333C21.9596 14.1826 21.5814 14.071 21.1895 13.998C20.7975 13.916 20.401 13.875 20 13.875C19.1615 13.875 18.373 14.0345 17.6348 14.3535C16.8965 14.6725 16.2539 15.1055 15.707 15.6523C15.1602 16.1992 14.7272 16.8418 14.4082 17.5801C14.0892 18.3184 13.9297 19.1068 13.9297 19.9453C13.9297 20.4831 13.998 21.0072 14.1348 21.5176C14.2715 22.028 14.472 22.5156 14.7363 22.9805L13.875 26.125L17.0879 25.2773C17.5345 25.5234 18.0039 25.708 18.4961 25.8311C18.9883 25.9541 19.4896 26.0156 20 26.0156C20.8385 26.0156 21.627 25.8561 22.3652 25.5371C23.1126 25.2181 23.7643 24.7852 24.3203 24.2383C24.8763 23.6914 25.3138 23.0488 25.6328 22.3105C25.9609 21.5723 26.125 20.7839 26.125 19.9453C26.125 19.5443 26.084 19.1478 26.002 18.7559C25.9199 18.3639 25.7992 17.9857 25.6396 17.6211C25.4801 17.2565 25.2865 16.9102 25.0586 16.582C24.8307 16.2539 24.5755 15.944 24.293 15.6523ZM20 24.9902C19.5443 24.9902 19.0977 24.931 18.6602 24.8125C18.2227 24.694 17.8125 24.5208 17.4297 24.293L17.2383 24.1836L15.3379 24.6895L15.8438 22.8164L15.7207 22.625C15.4655 22.224 15.2741 21.7956 15.1465 21.3398C15.0189 20.8841 14.9551 20.4193 14.9551 19.9453C14.9551 19.2526 15.0872 18.6009 15.3516 17.9902C15.6159 17.3704 15.9759 16.8327 16.4316 16.377C16.8874 15.9212 17.4206 15.5612 18.0312 15.2969C18.651 15.0326 19.3073 14.9004 20 14.9004C20.6745 14.9004 21.3193 15.028 21.9346 15.2832C22.5498 15.5384 23.0944 15.903 23.5684 16.377C24.0423 16.86 24.416 17.4069 24.6895 18.0176C24.9629 18.6283 25.0996 19.2708 25.0996 19.9453C25.0996 20.6471 24.9629 21.3034 24.6895 21.9141C24.4251 22.5247 24.0605 23.0579 23.5957 23.5137C23.1309 23.9694 22.5885 24.3294 21.9688 24.5938C21.349 24.8581 20.6927 24.9902 20 24.9902ZM22.7617 21.2168C22.6888 21.1803 22.5156 21.096 22.2422 20.9639C21.9688 20.8317 21.7956 20.752 21.7227 20.7246C21.6589 20.6973 21.5996 20.6836 21.5449 20.6836C21.4902 20.6836 21.4355 20.7246 21.3809 20.8066C21.3353 20.8796 21.2555 20.9821 21.1416 21.1143C21.0277 21.2464 20.9479 21.3398 20.9023 21.3945C20.8568 21.4492 20.8089 21.4788 20.7588 21.4834C20.7087 21.488 20.6471 21.472 20.5742 21.4355C20.1276 21.2168 19.7448 20.9867 19.4258 20.7451C19.1068 20.5036 18.8014 20.1322 18.5098 19.6309C18.4368 19.4941 18.4574 19.3939 18.5713 19.3301C18.6852 19.2663 18.8151 19.0885 18.9609 18.7969C18.9883 18.7513 18.9974 18.7057 18.9883 18.6602C18.9792 18.6146 18.9655 18.5736 18.9473 18.5371C18.929 18.5007 18.863 18.3411 18.749 18.0586C18.6351 17.776 18.5462 17.5618 18.4824 17.416C18.4186 17.2611 18.3571 17.179 18.2979 17.1699C18.2386 17.1608 18.1862 17.1562 18.1406 17.1562C18.0951 17.1471 18.0472 17.1426 17.9971 17.1426C17.9469 17.1426 17.8945 17.1426 17.8398 17.1426C17.7943 17.1426 17.7327 17.1562 17.6553 17.1836C17.5778 17.2109 17.5072 17.2611 17.4434 17.334C17.3704 17.4069 17.2633 17.5436 17.1221 17.7441C16.9808 17.9447 16.9102 18.2318 16.9102 18.6055C16.9102 18.9792 17.0036 19.321 17.1904 19.6309C17.3773 19.9408 17.4889 20.1185 17.5254 20.1641C17.5436 20.1914 17.6211 20.2962 17.7578 20.4785C17.8854 20.6608 18.0609 20.8704 18.2842 21.1074C18.5075 21.3444 18.7741 21.5905 19.084 21.8457C19.3939 22.0918 19.7402 22.2969 20.123 22.4609C20.6061 22.6706 20.9707 22.7959 21.2168 22.8369C21.4629 22.8779 21.7044 22.8802 21.9414 22.8438C22.0872 22.8164 22.2786 22.7344 22.5156 22.5977C22.7526 22.4609 22.903 22.3014 22.9668 22.1191C23.0306 21.946 23.0648 21.791 23.0693 21.6543C23.0739 21.5176 23.0671 21.431 23.0488 21.3945C23.0306 21.3581 22.9964 21.3285 22.9463 21.3057C22.8962 21.2829 22.8346 21.2533 22.7617 21.2168Z" fill="white"/>
</svg>
