<?xml version="1.0" encoding="UTF-8"?> <svg xmlns="http://www.w3.org/2000/svg" width="28" height="28" viewBox="0 0 28 28" fill="none"><path d="M14.0155 0.666504C6.67413 0.666504 0.697816 6.63767 0.69515 13.979C0.693816 16.3257 1.30846 18.6166 2.4738 20.6353L0.666504 27.3332L7.64307 25.6847C9.5884 26.7461 11.7783 27.3032 14.0076 27.3045H14.0129C21.3529 27.3045 27.3266 21.332 27.3306 13.992C27.3332 10.4334 25.9494 7.08748 23.4347 4.57015C20.9201 2.05415 17.5781 0.667837 14.0155 0.666504ZM14.0129 3.33317C16.8609 3.3345 19.5373 4.4449 21.5493 6.45557C23.5613 8.4689 24.6666 11.1441 24.6639 13.9894C24.6612 19.8614 19.8849 24.6379 14.0103 24.6379C12.2329 24.6365 10.4724 24.1903 8.92171 23.3436L8.02327 22.854L7.03109 23.0884L4.40609 23.7082L5.04671 21.328L5.33577 20.2603L4.78369 19.3019C3.85302 17.6913 3.36048 15.8497 3.36182 13.979C3.36448 8.10967 8.14219 3.33317 14.0129 3.33317ZM9.30192 7.83317C9.07925 7.83317 8.71923 7.9165 8.4139 8.24984C8.10857 8.58184 7.24723 9.38594 7.24723 11.0233C7.24723 12.6606 8.43994 14.2433 8.60661 14.466C8.77194 14.6873 10.9088 18.1535 14.2915 19.4868C17.1022 20.5948 17.673 20.3761 18.2837 20.3201C18.8944 20.2655 20.2538 19.5168 20.5311 18.7394C20.8084 17.9621 20.8091 17.2934 20.7264 17.1561C20.6437 17.0174 20.4217 16.9347 20.0884 16.7681C19.7564 16.6014 18.1203 15.798 17.8149 15.6873C17.5096 15.5767 17.2863 15.5207 17.0649 15.854C16.8436 16.1873 16.2075 16.9348 16.0129 17.1561C15.8182 17.3788 15.6248 17.4087 15.2915 17.242C14.9582 17.074 13.8864 16.7217 12.6144 15.5884C11.6251 14.707 10.9575 13.6196 10.7629 13.2863C10.5695 12.9543 10.7446 12.7719 10.9113 12.6066C11.0606 12.4573 11.242 12.2179 11.4087 12.0233C11.574 11.8286 11.6314 11.6899 11.742 11.4686C11.8527 11.2473 11.796 11.0519 11.7134 10.8853C11.6307 10.7186 10.9833 9.07517 10.6873 8.4165C10.438 7.86317 10.1747 7.85032 9.93734 7.84098C9.744 7.83298 9.52325 7.83317 9.30192 7.83317Z" fill="#8557C1"></path></svg> 