<svg width="24" height="23" viewBox="0 0 24 23" fill="none" xmlns="http://www.w3.org/2000/svg">
<path d="M12.013 0.379883C5.84625 0.379883 0.826158 5.39569 0.82389 11.5624C0.822798 13.5336 1.33915 15.458 2.318 17.1537L0.799866 22.7799L6.66021 21.3952C8.29426 22.2867 10.1338 22.7547 12.0064 22.7558H12.0108C18.1764 22.7558 23.1943 17.7389 23.1977 11.5733C23.1999 8.58408 22.0375 5.77352 19.9252 3.65891C17.8129 1.54547 15.0056 0.380975 12.013 0.379883ZM12.0108 2.61991C14.4032 2.621 16.6513 3.55374 18.3414 5.24273C20.0315 6.9339 20.9599 9.18107 20.9577 11.5711C20.9554 16.5036 16.9433 20.5159 12.0087 20.5159C10.5156 20.5147 9.03682 20.1399 7.73423 19.4286L6.97958 19.0174L6.14613 19.2143L3.94113 19.7349L4.47923 17.7355L4.72208 16.8387L4.25831 16.0336C3.47653 14.6807 3.06283 13.1338 3.06392 11.5624C3.06619 6.63217 7.07945 2.61991 12.0108 2.61991ZM8.0536 6.39991C7.86662 6.39991 7.56413 6.46988 7.30768 6.74985C7.05123 7.02873 6.32765 7.70418 6.32765 9.07959C6.32765 10.4549 7.32952 11.7844 7.46955 11.9715C7.6084 12.1574 9.4034 15.069 12.2449 16.1889C14.6059 17.1197 15.0853 16.9359 15.5983 16.8889C16.1113 16.843 17.2532 16.2141 17.4861 15.5611C17.7191 14.9082 17.7196 14.3465 17.6502 14.2311C17.5807 14.1146 17.3942 14.0452 17.1143 13.9052C16.8354 13.7652 15.4611 13.0903 15.2045 12.9974C14.9481 12.9045 14.7605 12.8574 14.5745 13.1374C14.3886 13.4174 13.8543 14.0453 13.6908 14.2311C13.5273 14.4182 13.3648 14.4433 13.0849 14.3033C12.8049 14.1622 11.9046 13.8663 10.8361 12.9143C10.0051 12.1739 9.4443 11.2605 9.28084 10.9805C9.11838 10.7016 9.26547 10.5484 9.4055 10.4096C9.53091 10.2842 9.68329 10.0831 9.82331 9.91959C9.96217 9.75605 10.0104 9.63954 10.1033 9.45365C10.1963 9.26775 10.1486 9.10362 10.0793 8.96367C10.0098 8.82365 9.46598 7.44319 9.21734 6.88988C9.00793 6.42511 8.78675 6.41427 8.58734 6.40646C8.42496 6.39974 8.23958 6.39991 8.0536 6.39991Z" fill="#8557C1"/>
</svg>
